<?xml version="1.0" encoding="UTF-8"?>
<svg xmlns="http://www.w3.org/2000/svg" fill="none" viewBox="0 0 298 51" width="233.72549019608" height="40"><path fill="color(display-p3 0.0392 0.7490 0.3255)" fill-rule="evenodd" d="M48.501 32.334h-3.018a1.594 1.594 0 0 1-1.59-1.589V11.56h-5.998c-3.058 0-5.56 2.503-5.56 5.561v16.604c0 3.06 2.502 5.562 5.56 5.562h22.166V0H48.5zM22.165 11.56H.397v6.912h14.181c.874 0 1.59.715 1.59 1.589v12.274h-3.02a1.594 1.594 0 0 1-1.589-1.589v-8.818H5.561C2.503 21.927 0 24.43 0 27.488v6.197c0 3.058 2.503 5.561 5.561 5.561h22.165V17.081c0-3.02-2.502-5.522-5.56-5.522m55.691 20.775h3.02V11.56h11.559v33.725c0 3.059-2.503 5.561-5.562 5.561H65.105v-8.103h15.77v-3.456H70.27c-3.058 0-5.56-2.503-5.56-5.561V11.559h11.558v19.186c0 .874.716 1.59 1.59 1.59m41.352-20.775H97.043v22.166c0 3.058 2.502 5.56 5.561 5.56h21.768v-6.91h-14.181a1.594 1.594 0 0 1-1.589-1.59V18.471h3.019c.874 0 1.589.715 1.589 1.589v8.819h5.998c3.058 0 5.561-2.503 5.561-5.562v-6.196c0-3.06-2.503-5.562-5.561-5.562m10.168 0h22.166c3.098 0 5.561 2.503 5.561 5.522v22.165h-11.56V20.06c0-.874-.715-1.589-1.588-1.589h-3.019v20.815h-11.56z" clip-rule="evenodd"/><path fill="color(display-p3 0.0392 0.7490 0.3255)" fill-opacity=".12" d="M177.103 6.982A6.98 6.98 0 0 1 184.085 0H290.05a6.98 6.98 0 0 1 6.982 6.982v36.88a6.98 6.98 0 0 1-6.982 6.983H184.085a6.98 6.98 0 0 1-6.982-6.982z"/><path fill="color(display-p3 0.0392 0.7490 0.3255)" d="M193.118 34.423V17.609h5.889c5.914 0 9.018 3.544 9.018 8.407s-3.104 8.407-9.018 8.407zm5.767-14.101h-2.492V31.71h2.492c4.204 0 5.768-2.64 5.768-5.694 0-3.055-1.564-5.694-5.768-5.694m12.203 14.1V17.61h12.195v2.713h-8.92v4.228h7.185v2.59h-7.185v4.57h9.14v2.713zm15.632 0V17.61h4.399l5.083 12.341h.074l5.083-12.34h4.301v16.813h-3.275l.245-12.317h-.098l-5.108 12.317h-2.468l-5.108-12.146h-.097l.244 12.146zm21.983-8.406c0-4.985 3.373-8.7 8.578-8.7 5.108 0 8.553 3.715 8.553 8.7s-3.445 8.7-8.553 8.7c-5.205 0-8.578-3.715-8.578-8.7m3.373 0c0 3.446 2.077 5.89 5.205 5.89 3.104 0 5.181-2.518 5.181-5.89 0-3.373-2.077-5.89-5.181-5.89-3.128 0-5.205 2.444-5.205 5.89m15.818 3.421h3.202c0 1.833 1.442 2.835 3.617 2.835 2.443 0 3.714-.904 3.714-2.541 0-1.467-1.393-1.98-3.348-2.298l-1.124-.195c-2.761-.465-5.767-1.222-5.767-4.863 0-2.86 2.566-5.06 6.574-5.06 3.91 0 6.476 1.883 6.476 5.035h-3.202c0-1.76-1.393-2.59-3.274-2.59s-3.324.757-3.324 2.297c0 1.564 1.564 1.93 3.69 2.322l1.124.195c2.664.513 5.523 1.295 5.523 4.839 0 3.128-2.541 5.303-7.062 5.303-4.473 0-6.819-1.93-6.819-5.279"/></svg>
