<?xml version="1.0" encoding="iso-8859-1"?>
<!-- Uploaded to: SVG Repo, www.svgrepo.com, Generator: SVG Repo Mixer Tools -->
<svg fill="#000000" height="800px" width="800px" version="1.1" id="Layer_1" xmlns="http://www.w3.org/2000/svg" xmlns:xlink="http://www.w3.org/1999/xlink" 
	 viewBox="0 0 502 502" xml:space="preserve">
<g>
	<g>
		<g>
			<path d="M369.472,34.892c-50.836,0-96.358,28.998-118.472,73.064c-22.113-44.066-67.636-73.064-118.472-73.064
				C59.452,34.892,0,94.344,0,167.421c0,62.31,57.586,117.659,103.857,162.133L244.24,464.478c1.912,1.754,4.336,2.63,6.76,2.63
				c2.432,0,4.862-0.882,6.776-2.646l140.366-134.908C444.414,285.08,502,229.73,502,167.421
				C502,94.344,442.548,34.892,369.472,34.892z M42.272,103.072l22.991-22.991c7.41-7.411,17.987-10.705,28.297-8.801l6.345,1.169
				l62.981,19.913c0.202,0.064,0.406,0.122,0.612,0.172c6.936,1.717,6.936,3.94,6.936,6.09c0,0.52-0.092,1.47-0.706,1.998
				c-0.75,0.644-2.71,1.153-5.965,0.666l-23.974-3.947c-3.427-0.564-6.906,0.692-9.183,3.32s-3.025,6.248-1.976,9.563l0.063,0.201
				c0.483,1.53,1.328,2.921,2.463,4.056l57.781,57.781c1.414,1.414,1.414,3.716,0.001,5.129c-1.417,1.416-3.717,1.414-5.132,0
				c-0.004-0.004-0.008-0.007-0.012-0.011c-0.004-0.004-0.007-0.009-0.011-0.013l-40.736-40.462
				c-3.918-3.892-10.251-3.871-14.142,0.047c-3.893,3.918-3.871,10.25,0.048,14.142l40.705,40.431
				c0.003,0.003,0.005,0.005,0.007,0.008l15.64,15.639c0.924,0.924,1.063,2.004,1.063,2.564c0,0.561-0.139,1.641-1.063,2.565
				s-2.003,1.062-2.564,1.062c-0.561,0-1.641-0.138-2.564-1.063l-9.636-9.636l-49.602-49.602c-3.906-3.905-10.236-3.905-14.143,0
				c-3.905,3.905-3.905,10.237,0,14.143l49.602,49.602l0.011,0.01c1.403,1.415,1.4,3.708-0.01,5.119
				c-1.415,1.413-3.716,1.415-5.131,0l-31.909-31.909L96.61,167.281c-3.905-3.905-10.235-3.905-14.143,0
				c-3.905,3.905-3.905,10.237,0,14.142l22.742,22.743c0.002,0.002,0.003,0.003,0.005,0.005l0.012,0.012
				c0.914,0.922,1.052,1.994,1.052,2.553c0,0.561-0.139,1.64-1.063,2.565c-0.925,0.924-2.004,1.062-2.564,1.062
				s-1.64-0.138-2.564-1.063L47.01,156.223c-0.186-0.186-0.379-0.364-0.579-0.534c-0.146-0.125-14.618-12.904-15.237-28.605
				C30.864,118.71,34.488,110.856,42.272,103.072z M386.916,311.737l-22.992,22.992c-7.46,7.46-14.983,11.098-22.968,11.098
				c-0.313,0-0.628-0.006-0.941-0.017c-15.801-0.562-28.604-15.123-28.708-15.242c-0.17-0.2-0.349-0.393-0.534-0.578l-53.077-53.077
				c-0.924-0.924-1.062-2.004-1.062-2.565c0-0.561,0.138-1.64,1.063-2.565c0.927-0.923,2.006-1.061,2.568-1.061
				s1.641,0.138,2.564,1.062c0.002,0.002,0.003,0.003,0.005,0.005l22.742,22.742c1.953,1.953,4.512,2.929,7.071,2.929
				s5.118-0.977,7.071-2.929c3.905-3.905,3.905-10.237,0-14.142l-22.747-22.748l-31.909-31.909c-1.414-1.415-1.414-3.716-0.001-5.13
				c1.414-1.412,3.713-1.415,5.13-0.002l0.001,0.001l49.601,49.602c1.953,1.953,4.512,2.929,7.071,2.929s5.118-0.977,7.071-2.929
				c3.905-3.905,3.905-10.237,0-14.142l-49.601-49.602c-0.002-0.002-0.003-0.003-0.005-0.005l-9.632-9.631
				c-1.414-1.415-1.414-3.716-0.001-5.13c1.415-1.413,3.716-1.415,5.131,0l15.609,15.609c0.004,0.004,0.009,0.009,0.013,0.013
				l39.454,39.728c1.955,1.969,4.524,2.954,7.096,2.954c2.548,0,5.096-0.968,7.047-2.904c3.918-3.892,3.94-10.224,0.049-14.142
				l-39.462-39.737c-0.003-0.003-0.007-0.006-0.011-0.01c-0.005-0.005-0.009-0.01-0.014-0.015l-0.012-0.012
				c-0.914-0.922-1.052-1.994-1.052-2.553c0-0.562,0.139-1.641,1.063-2.565s2.003-1.062,2.564-1.062
				c0.561,0,1.641,0.138,2.564,1.063l57.782,57.782c1.139,1.138,2.534,1.984,4.07,2.468l0.2,0.063
				c3.313,1.042,6.931,0.291,9.554-1.985c2.624-2.276,3.879-5.751,3.314-9.178l-3.947-23.976c-0.488-3.254,0.022-5.213,0.666-5.962
				c0.527-0.614,1.479-0.706,1.998-0.706c2.149,0,4.373,0,6.09,6.936c0.051,0.206,0.108,0.41,0.172,0.612l19.913,62.978l1.171,6.348
				C397.617,293.748,394.327,304.326,386.916,311.737z M415.963,283.982c-0.141-1.39-0.318-2.78-0.574-4.167l-1.155-6.266
				c-0.074-0.593-0.203-1.187-0.39-1.776l-20.047-63.4c-4.834-18.962-17.985-21.805-25.422-21.805
				c-6.722,0-12.979,2.797-17.169,7.674c-2.727,3.174-5.643,8.41-5.694,16.311l-36.632-36.631c-4.462-4.463-10.396-6.92-16.707-6.92
				c-6.311,0-12.245,2.458-16.706,6.92c-0.875,0.875-1.673,1.806-2.391,2.785c-9.265-8.355-23.602-8.071-32.521,0.849
				c-6.867,6.868-8.615,16.945-5.243,25.447c-1.564,0.955-3.041,2.109-4.393,3.46c-9.211,9.212-9.211,24.201,0,33.414l15.396,15.396
				c-0.97,0.712-1.892,1.503-2.758,2.37c-4.464,4.462-6.921,10.396-6.921,16.707c0,6.312,2.457,12.245,6.92,16.708l52.851,52.851
				c2.334,2.62,16.745,17.946,36.859,21.275c-35.305,34.432-68.458,65.45-82.279,78.301
				c-17.149-15.898-64.264-59.925-111.389-107.05c-6.872-6.872-14.164-13.88-21.883-21.299C74.182,273.29,20,221.213,20,167.421
				c0-3.954,0.208-7.86,0.607-11.71c5.229,8.163,10.972,13.533,12.484,14.88l52.852,52.851c4.462,4.463,10.396,6.921,16.707,6.921
				c6.311,0,12.245-2.458,16.706-6.92c0.867-0.867,1.659-1.789,2.371-2.759l15.397,15.397c4.605,4.606,10.656,6.909,16.706,6.909
				c6.051,0,12.102-2.303,16.708-6.909c1.349-1.348,2.5-2.821,3.453-4.381c2.746,1.093,5.703,1.665,8.747,1.665
				c6.312,0,12.245-2.458,16.706-6.92c4.464-4.462,6.922-10.396,6.922-16.708c0-5.9-2.148-11.47-6.074-15.816
				c0.975-0.712,1.907-1.507,2.787-2.387c9.211-9.212,9.211-24.201,0-33.413l-36.633-36.633c7.9-0.052,13.138-2.968,16.312-5.694
				c4.877-4.189,7.674-10.447,7.674-17.169c0-7.437-2.843-20.587-21.804-25.422l-53.6-16.947c5.704-0.895,11.548-1.363,17.5-1.363
				c51.056,0,95.797,34.441,108.803,83.754c1.157,4.391,5.128,7.45,9.669,7.45s8.512-3.059,9.669-7.45
				c13.006-49.313,57.747-83.754,108.803-83.754C431.52,54.892,482,105.373,482,167.421
				C482,208.546,450.332,248.668,415.963,283.982z"/>
			<path d="M459,156c-5.522,0-10,4.477-10,10c0,9.154-1.53,18.127-4.55,26.668c-1.84,5.208,0.89,10.92,6.097,12.761
				c1.102,0.39,2.226,0.575,3.332,0.575c4.119,0,7.978-2.565,9.429-6.67C467.085,188.646,469,177.431,469,166
				C469,160.477,464.522,156,459,156z"/>
			<path d="M453.879,146.003c1.105,0,2.23-0.185,3.332-0.574c5.207-1.841,7.937-7.554,6.097-12.761
				C449.214,92.792,411.314,66,369,66c-22.505,0-43.76,7.301-61.466,21.115c-4.354,3.397-5.13,9.681-1.733,14.035
				c3.398,4.355,9.682,5.13,14.036,1.733C333.995,91.838,350.995,86,369,86c33.854,0,64.176,21.433,75.45,53.333
				C445.901,143.438,449.76,146.003,453.879,146.003z"/>
			<path d="M150.988,293.348c-3.951-3.861-10.282-3.786-14.141,0.164c-3.86,3.95-3.786,10.282,0.164,14.141l15.999,15.632
				c1.945,1.901,4.467,2.848,6.987,2.848c2.599,0,5.194-1.006,7.153-3.011c3.86-3.95,3.786-10.282-0.164-14.141L150.988,293.348z"/>
			<path d="M177.848,333.571c-3.86,3.951-3.786,10.282,0.164,14.142l68,66.44c1.945,1.9,4.467,2.847,6.987,2.847
				c2.599,0,5.194-1.006,7.153-3.011c3.86-3.951,3.786-10.282-0.164-14.142l-68-66.44
				C188.037,329.547,181.706,329.621,177.848,333.571z"/>
		</g>
	</g>
</g>
</svg>