<?xml version="1.0" encoding="utf-8"?>
<svg width="240" height="240" viewBox="66.579 254.863 72.496 88.522" xmlns="http://www.w3.org/2000/svg">
  <path id="XMLID_526_" d="M 85.912 269.63 L 85.912 315.215 C 84.4 314.68 82.774 314.386 81.079 314.386 C 73.07 314.386 66.579 320.877 66.579 328.885 C 66.579 336.893 73.07 343.385 81.079 343.385 C 89.086 343.385 95.578 336.893 95.578 328.885 L 95.578 286.644 L 129.41 276.978 L 129.41 303.132 C 127.897 302.598 127.375 302.028 125.68 302.028 C 117.672 302.028 111.457 309.071 111.457 317.078 C 111.457 325.086 116.569 331.302 124.577 331.302 C 132.585 331.302 139.075 324.81 139.075 316.803 L 139.075 254.863 C 139.075 258.315 85.912 271.746 85.912 269.63 Z" style=""/>
</svg>