<?xml version="1.0" encoding="utf-8"?>
<svg width="96" height="48"  viewBox="215 133 85 42"  xmlns="http://www.w3.org/2000/svg">
	<path d="M27.038 6.61787C27.5803 7.96388 27.8902 9.45944 27.8902 11.1046C27.8902 12.0019 27.8127 12.9366 27.6965 13.8714C27.5416 14.8435 27.4254 15.7782 27.2704 16.7503C27.1155 17.7224 26.9605 18.6945 26.8443 19.6293C26.6894 20.6014 26.6507 21.5361 26.6507 22.4708C26.5732 22.4708 26.5344 22.4335 26.5344 22.3587V22.2465C26.4957 22.2839 26.4957 22.2839 26.4957 22.3213C26.4957 22.3587 26.457 22.3587 26.4182 22.3587C26.4182 22.4335 26.4182 22.6204 26.3795 22.8821C26.3408 23.1439 26.302 23.2934 26.2633 23.2934C26.3408 23.4804 26.3795 23.5551 26.3795 23.5551L26.302 23.7047C26.302 23.7795 26.3408 23.8169 26.3795 23.8542C26.3408 23.8542 26.3408 23.8542 26.302 23.8916C26.2633 23.929 26.2633 23.9664 26.2633 24.0412C26.2633 24.0786 26.2633 24.0786 26.2633 24.0786C26.2633 24.0786 26.2633 24.0786 26.2633 24.116C26.302 24.116 26.302 24.116 26.302 24.0786C26.302 24.0412 26.302 24.0038 26.3408 24.0038C26.2633 24.2281 26.2245 24.4899 26.2245 24.789C26.2245 25.0881 26.1858 25.3498 26.1858 25.6115C26.1858 25.2376 26.1083 25.0133 25.9921 24.9011L25.9147 24.9385C25.9147 24.9759 25.9147 25.0133 25.9534 25.0507C25.9921 25.1255 25.9921 25.1629 25.9921 25.2003H25.9534C25.9921 25.2376 26.0309 25.275 26.0309 25.3124L25.8759 25.2003C25.8759 25.3498 25.8759 25.4246 25.8372 25.4246C25.8372 25.3872 25.8372 25.3498 25.7984 25.2376C25.7597 25.1255 25.6822 25.0881 25.6048 25.0881C25.6435 25.0507 25.6822 25.0133 25.6822 24.9385C25.6822 24.8638 25.6435 24.8264 25.5273 24.789C25.5273 24.8264 25.5273 24.9011 25.566 24.9759C25.6048 25.0507 25.6048 25.1629 25.6048 25.275C25.566 25.2376 25.5273 25.1629 25.4886 25.1255C25.4498 25.0881 25.4111 25.0133 25.3723 24.9011C25.3723 24.9385 25.3723 24.9385 25.3723 24.9385V24.9759C25.3723 25.0881 25.3723 25.1629 25.3723 25.1629C25.3723 25.1629 25.3336 25.0881 25.2949 24.9385C25.2174 24.9759 25.1787 25.0133 25.1787 25.0881C25.1787 25.1255 25.1787 25.1629 25.1787 25.2376C25.1787 25.275 25.1787 25.3498 25.1787 25.3872C25.1399 25.3872 25.1399 25.3872 25.1399 25.3498V25.3124C25.1012 25.3498 25.1012 25.4246 25.1399 25.462C25.1787 25.5368 25.1787 25.5741 25.1787 25.6115C25.1012 25.4994 25.0625 25.3498 24.985 25.1255C24.9462 25.0507 24.9463 24.9385 24.9075 24.8264C24.9075 24.8638 24.9075 24.8638 24.8688 24.8264C24.83 24.8264 24.83 24.8264 24.7913 24.8264C24.83 24.9385 24.8688 25.0133 24.83 25.0507C24.83 25.0881 24.7526 25.0507 24.6364 24.9385C24.6364 25.0133 24.6364 25.0507 24.6751 25.0881C24.7138 25.1255 24.7138 25.1629 24.7138 25.2376C24.6751 25.2003 24.6751 25.1629 24.6364 25.1255C24.5976 25.0881 24.5976 25.0507 24.5976 24.9385C24.5589 24.9385 24.5589 24.9385 24.5976 24.9759C24.5976 25.0133 24.5976 25.0133 24.5976 25.0133C24.5201 24.9385 24.4814 24.9011 24.4814 24.8264C24.4814 24.789 24.4427 24.7516 24.4427 24.7516L24.3652 24.8264C24.3265 24.8264 24.3265 24.789 24.3265 24.7516C24.2877 24.8264 24.2877 24.9385 24.2877 25.0133C24.2877 25.0881 24.2877 25.1629 24.2877 25.2003C24.249 25.1255 24.249 25.0507 24.2103 24.9759C24.1715 24.9385 24.1328 24.8638 24.094 24.7516C24.094 24.8264 24.1328 24.9385 24.1715 25.0133C24.2103 25.0881 24.249 25.2003 24.249 25.3124C24.1715 25.275 24.094 25.2376 24.094 25.1629L24.0553 25.4246C24.0553 25.462 24.0553 25.4994 24.094 25.4994C24.1328 25.4994 24.1328 25.5368 24.1328 25.5368C24.1328 25.5741 24.1328 25.5741 24.094 25.5741C23.9778 25.5368 23.9004 25.4246 23.8229 25.3124C23.7454 25.1629 23.7067 25.0507 23.7067 24.9385C23.7067 25.0133 23.7067 25.0507 23.7067 25.1255C23.7067 25.2003 23.7067 25.2376 23.7067 25.275C23.5905 25.275 23.5517 25.3872 23.5517 25.6115C23.5905 25.8359 23.5905 25.9854 23.6679 26.0976C23.6292 26.0228 23.5517 25.948 23.513 25.8733C23.4355 25.7985 23.3968 25.7985 23.3968 25.8733C23.3968 25.9106 23.3968 25.9106 23.3968 25.9106C23.3968 25.9106 23.3968 25.9106 23.3968 25.948C23.1256 25.6863 22.9707 25.462 22.932 25.2003C22.8545 24.9385 22.8545 24.6768 22.8545 24.3777C22.8545 24.0038 22.8545 23.6673 22.8932 23.3308C22.932 23.0317 22.9707 22.6204 22.9707 22.097C22.8932 22.1717 22.8545 22.2091 22.8932 22.2839C22.8932 22.3587 22.8932 22.3961 22.8932 22.5082C22.8545 22.4708 22.8545 22.4708 22.8157 22.5082C22.777 22.5082 22.777 22.5082 22.777 22.5082C22.777 22.2091 22.8157 21.7978 22.8545 21.3118C22.8932 20.7883 22.9707 20.2649 23.0094 19.7414C23.0869 19.218 23.1644 18.7319 23.2418 18.2833C23.3193 17.8346 23.4355 17.5355 23.513 17.3859C23.4743 17.5729 23.4355 17.8346 23.3968 18.0589C23.3581 18.3207 23.3193 18.545 23.2806 18.7693C23.3193 18.7693 23.3193 18.7693 23.3193 18.7319C23.2806 18.6945 23.3193 18.6945 23.3581 18.6945C23.3581 18.7693 23.3581 18.8067 23.3581 18.8441C23.3581 18.8815 23.3581 18.9189 23.3581 18.9563V18.9937C23.3581 19.0311 23.3581 19.0311 23.3581 19.0684C23.3581 19.1058 23.3581 19.1058 23.3581 19.1432V19.2554C23.3968 19.1806 23.4355 19.0311 23.513 18.8441C23.5517 18.6198 23.5905 18.4328 23.6292 18.2459C23.6292 18.2833 23.6292 18.2833 23.6292 18.2833C23.6292 18.2833 23.6292 18.2833 23.6292 18.3207L23.5905 18.358C23.5905 18.2833 23.5905 18.2085 23.6292 18.0963C23.6679 17.9842 23.6679 17.872 23.7067 17.7598C23.7454 17.6477 23.7454 17.5355 23.7842 17.4607C23.8229 17.3859 23.8229 17.3485 23.7842 17.3485V17.2364C23.7842 17.1242 23.7842 16.9747 23.7842 16.8251C23.7842 16.6381 23.8229 16.4886 23.8229 16.339C23.8616 16.1521 23.8616 15.9651 23.9391 15.8156C23.9391 15.7408 23.9391 15.666 23.9778 15.5913C24.0166 15.5165 24.0166 15.4417 24.0553 15.3669C24.1715 14.7313 24.249 14.32 24.2877 14.0957C24.3265 13.8714 24.3652 13.7218 24.3652 13.647C24.3652 13.5722 24.4039 13.5349 24.4039 13.4601C24.4039 13.4227 24.4427 13.2357 24.4814 12.9366C24.4039 13.0862 24.3652 13.1984 24.3652 13.2731C24.3652 13.3479 24.2877 13.4975 24.2103 13.647C24.249 13.1236 24.3265 12.6001 24.4427 12.1515C24.5589 11.6654 24.6364 11.2541 24.6751 10.8802C24.6364 10.8802 24.6364 10.8428 24.6364 10.7681C24.6364 10.6933 24.6364 10.6559 24.6364 10.5811V10.0203C24.6364 9.9455 24.6364 9.83333 24.6364 9.79594C24.6364 9.72117 24.6364 9.64639 24.6364 9.609V9.34727L24.5976 9.30989C24.5589 9.34727 24.5201 9.42205 24.5201 9.49683C24.5201 9.57161 24.4814 9.68378 24.4814 9.72117C24.5201 9.68378 24.5589 9.64639 24.5201 9.64639C24.5201 9.64639 24.5201 9.609 24.5589 9.57161V9.79594C24.5589 9.98289 24.5201 10.2072 24.4814 10.4689C24.4427 10.7307 24.3652 10.955 24.2877 11.142C24.2877 10.955 24.2877 10.7681 24.2877 10.5437C24.2877 10.3194 24.3265 10.1324 24.4039 9.98289C24.4039 9.9455 24.3652 9.9455 24.3265 9.87072C24.3652 9.87072 24.3652 9.83333 24.3652 9.79594C24.2877 9.30989 24.2877 8.82383 24.2877 8.26299C24.3265 7.70215 24.2103 7.2161 23.9778 6.76743C23.5905 6.95437 23.1644 7.36565 22.6608 8.00127C22.196 8.63688 21.7311 9.30989 21.2663 10.0577C20.8402 10.8054 20.4141 11.5532 20.0655 12.301C19.7168 13.0488 19.4457 13.647 19.2907 14.0957C19.252 14.0583 19.2133 14.0583 19.1745 14.0583C19.0971 14.0583 19.0583 14.0583 19.0583 14.0209C19.0583 14.0583 19.0583 14.0957 19.0971 14.1331C19.1358 14.1705 19.1358 14.2452 19.1358 14.32V14.3574C18.9808 14.8061 18.8259 15.4043 18.5935 16.1895C18.3998 16.9373 18.1674 17.7224 17.9737 18.545C17.78 19.3302 17.5863 20.0779 17.4314 20.751C17.2764 21.424 17.1602 21.91 17.1215 22.2091V22.2839H17.1602C17.1215 22.3213 17.0828 22.3587 17.044 22.3961C16.9665 22.4335 16.9278 22.5082 16.8891 22.6204C16.8116 22.5456 16.8116 22.5082 16.8116 22.5082C16.8116 22.583 16.8116 22.6578 16.8503 22.6578C16.7729 22.6952 16.6954 22.7326 16.6954 22.77C16.6567 22.77 16.6567 22.7326 16.6179 22.6578C16.5404 22.6952 16.5017 22.7326 16.463 22.8074C16.4242 22.8447 16.3855 22.8821 16.3468 22.8821C16.308 22.6952 16.2306 22.6204 16.1531 22.6204C16.1143 22.6952 16.0756 22.7326 16.0369 22.77C15.9981 22.8074 15.9594 22.8821 15.9594 22.9569C15.9594 22.9195 15.9594 22.9195 15.9207 22.9195C15.8819 22.9195 15.8819 22.9195 15.8819 22.8821C15.8045 22.9569 15.7657 22.9943 15.7657 23.0317C15.7657 23.1065 15.7657 23.1439 15.8045 23.1812C15.6882 23.2186 15.6108 23.256 15.572 23.3682C15.4558 23.3682 15.4171 23.3308 15.4171 23.2934C15.4171 23.256 15.4171 23.1812 15.3784 23.0691C15.2234 23.2186 15.1459 23.2934 15.1459 23.3308C15.1459 23.3682 15.0297 23.3682 14.836 23.3682C14.7198 23.3682 14.6424 23.3308 14.6036 23.2186C14.5262 23.2186 14.4099 23.2186 14.2163 23.256C14.0226 23.2934 13.7902 23.2934 13.5577 23.3308C13.3253 23.3682 13.0929 23.4056 12.8605 23.4056C12.6281 23.443 12.4731 23.443 12.3957 23.443C12.2794 23.443 12.202 23.4056 12.1632 23.3682C12.1245 23.3682 12.1245 23.3682 12.1245 23.4056C12.1245 23.443 12.0858 23.443 12.047 23.443C12.0083 23.443 11.9308 23.443 11.8533 23.443C11.7759 23.443 11.6984 23.4056 11.6597 23.3682C11.6597 23.3308 11.6597 23.2934 11.6984 23.256C11.7371 23.2186 11.7371 23.2186 11.7371 23.1812C11.7371 23.1065 11.6984 23.0691 11.6597 23.0317C11.5822 22.9943 11.5822 22.9569 11.5822 22.9569C11.6597 22.9943 11.6984 22.9569 11.6597 22.8821C11.6597 22.8074 11.6597 22.7326 11.6984 22.6952C11.7371 22.6952 11.7371 22.6952 11.7371 22.7326C11.6984 22.77 11.7371 22.77 11.7759 22.77C11.7759 22.6952 11.7759 22.6204 11.7759 22.5456C11.7759 22.4708 11.7759 22.4335 11.7759 22.3961C11.7759 22.1717 11.8146 21.7231 11.8533 21.0501C11.8921 20.3771 11.9696 19.5919 12.0858 18.6572C12.1632 17.7224 12.2794 16.7503 12.3569 15.666C12.4344 14.6191 12.5506 13.5722 12.6281 12.5627C12.7055 11.5532 12.783 10.6185 12.8605 9.75856C12.8992 8.89861 12.938 8.2256 12.938 7.73954C12.938 7.02915 12.8992 6.35615 12.8218 5.72053C12.7443 5.08492 12.5893 4.4493 12.3182 3.88847C11.6984 4.67364 11.1561 5.4962 10.6912 6.39354C10.2264 7.29087 9.76158 8.15082 9.37421 9.01077C8.32833 11.2541 7.43739 13.6096 6.74014 16.0399C6.00414 18.4702 5.50057 21.1622 5.19068 24.0786C5.19068 24.3029 5.19068 24.4899 5.22942 24.602C5.26815 24.7516 5.26815 24.9011 5.26815 25.1255C5.26815 25.3872 5.22942 25.5741 5.11321 25.6863C4.997 25.7985 4.88079 25.8733 4.76458 25.8733C4.64837 25.9106 4.53216 25.948 4.41595 25.948C4.29974 25.9854 4.26101 26.0228 4.22227 26.135C4.22227 26.1724 4.22227 26.1724 4.22227 26.2098C4.22227 26.2471 4.22227 26.2471 4.22227 26.2845C4.1448 26.2471 4.10606 26.2098 4.06732 26.1724C4.02859 26.135 3.98985 26.135 3.91238 26.135C3.8349 26.1724 3.7187 26.2098 3.60249 26.2471C3.48628 26.2845 3.44754 26.2845 3.4088 26.3219C3.37007 26.3219 3.21512 26.3219 2.94397 26.2845C2.67281 26.2471 2.51787 26.2471 2.44039 26.2471C2.32418 26.2471 2.24671 26.2845 2.24671 26.3967C2.24671 26.5089 2.16924 26.5463 2.05303 26.5463C2.01429 26.5463 1.89808 26.5089 1.78187 26.4715C1.74314 26.5089 1.7044 26.5089 1.7044 26.5463C1.7044 26.5836 1.66567 26.5836 1.62693 26.5836C1.58819 26.5836 1.54946 26.5836 1.51072 26.5463C1.47198 26.5836 1.35577 26.6584 1.20083 26.7332C1.04588 26.808 0.852201 26.8828 0.658519 26.8828C0.581046 26.8828 0.54231 26.808 0.503573 26.621C0.464837 26.4341 0.426101 26.2471 0.387364 25.9854C0.348628 25.7237 0.348628 25.462 0.348628 25.1629C0.348628 24.8638 0.348628 24.602 0.348628 24.3403C0.348628 20.5266 0.271155 16.7129 0.0774728 12.9366C0.0774728 9.30989 0 5.42142 0 1.42079C0 1.3834 0 1.30862 0.0387364 1.23384C0.0387364 1.19645 0.116209 1.12167 0.193682 1.04689C0.193682 1.00951 0.309891 0.972117 0.503573 0.859949C0.697255 0.747782 0.929674 0.598226 1.20083 0.486058C1.51072 0.373891 1.78187 0.261724 2.09177 0.149556C2.36292 0.0373891 2.63408 0 2.82776 0C3.21512 0 3.52501 0.112167 3.75743 0.299113C3.98985 0.486058 4.18353 0.785171 4.29974 1.12167C4.41595 1.45817 4.49342 1.83207 4.53216 2.28074C4.5709 2.69202 4.60963 3.14068 4.60963 3.55196C4.60963 4.07541 4.5709 4.7858 4.53216 5.68314C4.45469 6.54309 4.41595 7.44043 4.33848 8.33777C4.26101 9.23511 4.18353 10.0577 4.06732 10.8428C3.98985 11.5906 3.91238 12.1515 3.87364 12.488C4.37721 11.2167 4.88079 9.98289 5.4231 8.71166C5.92667 7.44043 6.54645 6.31876 7.20497 5.30925C7.90223 4.29975 8.71569 3.47719 9.64537 2.84157C10.575 2.16857 11.7759 1.86945 13.1704 1.86945C13.2866 1.86945 13.4028 1.86945 13.519 1.86945C13.6352 1.86945 13.7514 1.86945 13.8676 1.86945H13.8289C13.8289 1.83207 13.8289 1.83207 13.8676 1.83207C13.9451 1.90684 14.0613 1.94423 14.2163 1.94423C14.3712 1.94423 14.4874 1.98162 14.6036 2.09379L14.6424 2.0564C14.6811 2.0564 14.7198 2.09379 14.836 2.20596C14.836 2.16857 14.7973 2.16857 14.7198 2.16857C14.7586 2.20596 14.7973 2.24335 14.7973 2.20596C14.7973 2.20596 14.7973 2.20596 14.7973 2.24335C14.7973 2.28074 14.7586 2.31812 14.7198 2.31812C14.6811 2.31812 14.6424 2.31812 14.6036 2.28074C14.5649 2.24335 14.5262 2.20596 14.4874 2.20596C14.5262 2.24335 14.5649 2.28074 14.5649 2.31812C14.5649 2.35551 14.6036 2.3929 14.7198 2.46768C14.7198 2.43029 14.7198 2.43029 14.7586 2.43029C14.7973 2.43029 14.7973 2.3929 14.7973 2.3929C14.836 2.3929 14.836 2.3929 14.836 2.43029C14.836 2.46768 14.836 2.46768 14.7973 2.50507C14.836 2.46768 14.836 2.46768 14.9135 2.46768C14.9523 2.46768 15.0685 2.57985 15.2621 2.80418C15.4558 3.02852 15.572 3.14068 15.6882 3.21546C15.6882 3.14068 15.727 3.1033 15.7657 3.02852C15.8045 3.14068 15.8432 3.29024 15.8819 3.4398C15.9207 3.58935 15.9981 3.7763 16.1143 3.92586C16.1918 4.07541 16.308 4.26236 16.3855 4.37452C16.463 4.52408 16.5792 4.59886 16.6567 4.59886C16.6567 4.56147 16.6179 4.52408 16.5792 4.52408C16.5404 4.52408 16.5017 4.48669 16.5017 4.4493C16.5404 4.4493 16.5404 4.4493 16.5404 4.41191C16.4242 4.26236 16.308 4.15019 16.2306 3.96324C16.0369 3.66413 15.9207 3.36502 15.9207 3.1033C16.6954 4.1128 17.2377 5.23447 17.5476 6.43093C17.8575 7.62738 18.0512 8.89861 18.0899 10.2446C18.4773 9.72117 18.8646 9.16033 19.3295 8.52471C19.7943 7.8891 20.2979 7.29087 20.8402 6.73004C21.3825 6.1692 22.0023 5.72053 22.6608 5.34664C23.3193 4.97275 24.0166 4.7858 24.7913 4.7858C25.0625 4.7858 25.3336 4.86058 25.566 5.01014C25.7985 5.1597 25.9921 5.34664 26.1858 5.53359C26.3795 5.75792 26.5344 5.98226 26.6507 6.20659C26.8443 6.31876 26.9605 6.5057 27.038 6.61787ZM1.04588 13.9461V13.8714C1.04588 13.834 1.04588 13.834 1.08462 13.7966C1.00715 13.7966 0.96841 13.834 0.96841 13.8714C0.96841 13.9087 1.00715 13.9461 1.04588 13.9461ZM1.54946 19.8536C1.58819 19.9284 1.58819 19.9658 1.58819 20.0406C1.58819 20.0779 1.54946 20.1901 1.54946 20.3023C1.54946 20.4518 1.54946 20.5266 1.58819 20.5266L1.7044 19.4797C1.74314 19.4423 1.78187 19.4423 1.82061 19.3676C1.85935 19.2928 1.85935 19.218 1.82061 19.218C1.89808 19.0311 1.97556 18.9563 1.97556 18.9563C1.97556 18.9563 1.97556 18.9189 1.97556 18.8815C1.97556 18.8067 1.97556 18.6945 1.97556 18.5076C1.97556 18.3207 2.01429 18.1337 2.01429 17.9468C2.05303 17.7598 2.05303 17.5729 2.05303 17.3859C2.05303 17.199 2.05303 17.1242 2.05303 17.0494C2.05303 17.012 2.05303 17.012 2.05303 17.0868C2.05303 17.1616 2.01429 17.199 2.01429 17.199V17.199C1.97556 17.199 1.97556 17.199 1.97556 17.1616V17.0494C1.97556 17.012 1.97556 17.012 2.01429 17.012C2.01429 16.9373 2.05303 16.8625 2.09177 16.8251C2.05303 16.7877 2.01429 16.7503 2.01429 16.6755C2.01429 16.6381 2.01429 16.6381 2.05303 16.5634C2.09177 16.526 2.09177 16.4886 2.05303 16.4512L1.97556 16.526V16.6755C1.97556 16.7877 1.97556 16.8251 1.97556 16.7877C1.97556 16.7503 1.93682 16.7129 1.93682 16.6381C1.93682 16.6755 1.93682 16.7129 1.93682 16.7503C1.93682 16.7877 1.93682 16.7877 1.93682 16.8251C1.93682 16.9747 1.93682 17.1242 1.93682 17.3112C1.93682 17.4981 1.89808 17.6477 1.89808 17.8346C1.89808 17.9842 1.85935 18.1337 1.85935 18.2459C1.85935 18.358 1.85935 18.3954 1.85935 18.3954V17.4981C1.85935 17.4607 1.85935 17.4233 1.85935 17.3859C1.85935 17.3485 1.85935 17.3485 1.85935 17.3112C1.85935 17.4607 1.85935 17.685 1.85935 17.9468C1.85935 18.2085 1.85935 18.3954 1.85935 18.5076C1.82061 18.5076 1.82061 18.5076 1.82061 18.4702C1.82061 18.358 1.82061 18.2459 1.82061 18.1711C1.82061 18.0963 1.82061 17.9842 1.82061 17.872L1.74314 17.9842C1.78187 17.8346 1.78187 17.6477 1.78187 17.4607C1.78187 17.2738 1.78187 17.0868 1.78187 16.8999C1.78187 16.7877 1.78187 16.6381 1.78187 16.3764C1.78187 16.1521 1.74314 15.9278 1.74314 15.7034C1.74314 15.4791 1.7044 15.2921 1.7044 15.1426C1.66567 14.993 1.66567 14.8809 1.62693 14.8809C1.62693 14.9183 1.58819 14.993 1.54946 15.1052C1.54946 15.1426 1.54946 15.18 1.54946 15.2548C1.54946 15.2921 1.54946 15.3295 1.58819 15.4043C1.58819 15.2921 1.58819 15.2174 1.62693 15.2174C1.66567 15.2548 1.66567 15.2921 1.66567 15.3295C1.66567 15.5165 1.66567 15.666 1.62693 15.8156C1.58819 15.9651 1.58819 16.1147 1.58819 16.339C1.62693 16.6008 1.62693 16.7129 1.58819 16.6755C1.58819 16.6381 1.58819 16.6755 1.58819 16.7129C1.58819 16.7503 1.58819 16.7877 1.54946 16.8251C1.51072 16.8625 1.51072 16.7877 1.51072 16.6755C1.51072 16.6008 1.51072 16.4886 1.51072 16.3764C1.51072 16.2643 1.51072 16.0025 1.51072 15.5539L1.39451 16.2643C1.35577 16.2269 1.35577 16.1521 1.35577 16.0399C1.35577 15.9278 1.35577 15.8156 1.35577 15.7034C1.35577 15.5913 1.35577 15.4791 1.35577 15.3669C1.31704 15.3669 1.2783 15.3295 1.23957 15.2174C1.20083 15.1052 1.20083 15.0678 1.20083 15.1426C1.20083 15.18 1.20083 15.2548 1.16209 15.3669C1.12336 15.4791 1.12336 15.5539 1.16209 15.5913C1.20083 15.6286 1.20083 15.5913 1.20083 15.5913C1.20083 15.5539 1.23957 15.5539 1.23957 15.5539L1.16209 15.7034V15.7408C1.20083 15.7408 1.20083 15.7782 1.16209 15.8156C1.12336 15.853 1.12336 15.8904 1.12336 15.9651C1.12336 16.0773 1.12336 16.1147 1.12336 16.0773C1.12336 16.0399 1.12336 16.1147 1.12336 16.2643C1.12336 16.3016 1.12336 16.339 1.16209 16.3764C1.16209 16.4138 1.20083 16.4512 1.20083 16.4512C1.16209 16.4512 1.16209 16.4512 1.12336 16.4138C1.12336 16.3764 1.08462 16.3764 1.08462 16.3764V16.526C1.12336 16.526 1.12336 16.526 1.16209 16.4886V16.526C1.12336 16.5634 1.08462 16.6381 1.08462 16.7503C1.08462 16.8625 1.08462 16.9747 1.08462 17.012C1.08462 17.199 1.08462 17.3859 1.08462 17.4981C1.08462 17.6103 1.08462 17.7224 1.08462 17.7972C1.08462 17.872 1.08462 17.9842 1.08462 18.1337C1.08462 18.2459 1.08462 18.4328 1.12336 18.6572C1.08462 18.8441 1.08462 18.9937 1.12336 19.0311C1.12336 19.0684 1.16209 19.1806 1.16209 19.3302C1.16209 19.4423 1.23957 19.5171 1.43325 19.5545C1.43325 19.6667 1.43325 19.7414 1.39451 19.7414C1.35577 19.7414 1.39451 19.8162 1.47198 19.891C1.47198 19.8536 1.51072 19.8536 1.54946 19.8536ZM1.16209 14.1331C1.16209 14.2079 1.16209 14.2452 1.12336 14.2826C1.16209 14.32 1.20083 14.3574 1.20083 14.4696V14.5444C1.20083 14.507 1.20083 14.507 1.23957 14.507C1.2783 14.507 1.2783 14.4696 1.2783 14.4322C1.2783 14.2452 1.23957 14.0957 1.16209 14.0209V14.1331V14.1331ZM1.20083 15.0304C1.20083 14.9556 1.20083 14.8809 1.20083 14.8061C1.20083 14.7313 1.20083 14.6565 1.16209 14.6191C1.16209 14.6565 1.16209 14.7313 1.12336 14.8435C1.12336 14.9556 1.16209 15.0304 1.20083 15.0304ZM1.20083 17.8346C1.20083 17.9842 1.20083 18.0963 1.20083 18.2085C1.20083 18.3207 1.20083 18.4328 1.20083 18.5824C1.20083 18.545 1.20083 18.5076 1.20083 18.4702C1.20083 18.4328 1.20083 18.3954 1.20083 18.358C1.20083 18.2833 1.20083 18.1711 1.20083 18.0589C1.16209 17.9468 1.16209 17.872 1.20083 17.8346ZM1.20083 16.6381C1.23957 16.6755 1.23957 16.7503 1.23957 16.8251C1.23957 16.8999 1.23957 17.012 1.23957 17.0494C1.23957 17.1242 1.23957 17.199 1.23957 17.2738C1.23957 17.3485 1.23957 17.3859 1.20083 17.4981C1.16209 17.5355 1.16209 17.4981 1.16209 17.3485C1.16209 17.199 1.16209 17.0868 1.16209 16.8999C1.16209 16.8625 1.16209 16.7877 1.16209 16.6755C1.16209 16.5634 1.20083 16.5634 1.20083 16.6381ZM1.23957 19.3676C1.20083 19.3676 1.16209 19.3302 1.16209 19.218C1.16209 19.1806 1.16209 19.1432 1.16209 19.1058C1.16209 19.0684 1.16209 19.0684 1.16209 19.0311C1.23957 19.0311 1.23957 19.0684 1.23957 19.0684V19.3676ZM1.2783 13.4975C1.23957 13.4975 1.20083 13.5349 1.20083 13.5722C1.20083 13.6096 1.23957 13.647 1.2783 13.647V13.4975ZM1.31704 13.9461C1.31704 13.9461 1.2783 13.9087 1.31704 13.9461L1.2783 13.7966C1.23957 13.834 1.23957 13.8714 1.23957 13.9087C1.23957 13.9461 1.2783 13.9835 1.31704 13.9461ZM1.31704 14.4696C1.2783 14.5817 1.23957 14.7313 1.23957 14.9183C1.23957 15.1052 1.23957 15.2174 1.2783 15.3295C1.31704 15.18 1.31704 15.0304 1.2783 14.9183C1.2783 14.8061 1.31704 14.6565 1.31704 14.4696ZM1.35577 17.7598C1.35577 17.8346 1.35577 17.9094 1.35577 17.9842C1.35577 18.0589 1.35577 18.1711 1.35577 18.2833C1.31704 18.2085 1.2783 18.0963 1.2783 18.0589C1.31704 17.9468 1.31704 17.8346 1.35577 17.7598ZM1.35577 18.6945C1.39451 18.7319 1.39451 18.7319 1.39451 18.7693C1.39451 18.8067 1.39451 18.8441 1.43325 18.9189C1.47198 18.9563 1.47198 18.9937 1.43325 19.0311L1.39451 19.1806C1.35577 19.1432 1.35577 18.9937 1.35577 18.6945ZM1.51072 17.3112C1.47198 17.3112 1.43325 17.3112 1.43325 17.2738C1.43325 17.2364 1.43325 17.2364 1.43325 17.199C1.43325 17.1616 1.43325 17.1242 1.43325 17.1242C1.43325 17.1616 1.43325 17.1616 1.47198 17.1616C1.47198 17.199 1.47198 17.199 1.47198 17.199C1.47198 17.199 1.47198 17.2364 1.47198 17.2738L1.51072 17.3112ZM1.97556 17.7598C1.97556 17.9094 1.97556 18.0963 1.93682 18.2833C1.89808 18.4702 1.89808 18.6572 1.85935 18.8441C1.85935 18.6946 1.85935 18.5076 1.85935 18.2833C1.89808 18.0589 1.89808 17.9094 1.97556 17.7598ZM2.01429 16.5634C2.05303 16.526 2.05303 16.4886 2.05303 16.3764C2.01429 16.4138 1.97556 16.4512 1.97556 16.526L2.01429 16.5634ZM2.20798 17.7598C2.28545 17.6477 2.36292 17.4981 2.40166 17.3112C2.44039 17.1242 2.44039 16.9373 2.44039 16.7503C2.40166 16.7503 2.36292 16.6008 2.36292 16.3016V14.993C2.36292 15.0304 2.36292 14.993 2.36292 14.993C2.36292 14.993 2.32418 14.9556 2.28545 14.9556C2.24671 15.4043 2.24671 15.8156 2.20798 16.1895C2.16924 16.4886 2.16924 16.8251 2.16924 17.1242C2.20798 17.4607 2.20798 17.6477 2.20798 17.7598ZM2.28545 17.8346L2.24671 17.9094C2.24671 17.9468 2.24671 17.9468 2.24671 17.9842C2.24671 18.0215 2.24671 18.0215 2.24671 18.0589C2.24671 18.0963 2.24671 18.0963 2.28545 18.0963C2.24671 18.1337 2.20798 18.2085 2.20798 18.2833C2.20798 18.358 2.20798 18.4328 2.24671 18.4702C2.24671 18.358 2.24671 18.2833 2.24671 18.2833C2.24671 18.2459 2.24671 18.2459 2.24671 18.1711C2.24671 18.2085 2.24671 18.2085 2.28545 18.2085V17.8346V17.8346ZM2.28545 17.0868C2.32418 17.0868 2.32418 17.0868 2.32418 17.1242C2.28545 17.1616 2.28545 17.199 2.32418 17.199C2.28545 17.2364 2.28545 17.2364 2.24671 17.2364C2.20798 17.2364 2.20798 17.2364 2.20798 17.199C2.24671 17.1616 2.24671 17.1242 2.28545 17.0868ZM2.36292 17.012C2.32418 17.012 2.28545 16.9747 2.28545 16.9373C2.28545 16.8999 2.28545 16.8625 2.28545 16.8251C2.32418 16.8625 2.36292 16.8999 2.36292 17.012ZM2.40166 16.6008C2.47913 16.4512 2.51787 16.2643 2.47913 16.0025C2.47913 15.7782 2.47913 15.666 2.47913 15.7408C2.47913 15.8904 2.47913 16.0025 2.44039 16.1521C2.40166 16.3016 2.40166 16.4512 2.40166 16.6008ZM14.2163 2.01901C14.255 2.0564 14.255 2.09379 14.2937 2.09379C14.3325 2.09379 14.3325 2.13118 14.4099 2.16857C14.3712 2.01901 14.255 1.98162 14.0613 1.98162C14.0613 2.01901 14.1001 2.01901 14.2163 2.01901ZM14.7973 2.54246C14.7973 2.61724 14.836 2.65463 14.9135 2.65463V2.57985C14.9135 2.61724 14.8748 2.57985 14.7973 2.54246ZM14.9523 2.69202V2.76679C14.991 2.76679 14.991 2.76679 15.0297 2.7294L14.9523 2.69202C14.9523 2.7294 14.9523 2.7294 14.9523 2.69202ZM15.1072 2.69202C15.1072 2.76679 15.1459 2.84157 15.2621 2.84157C15.2234 2.7294 15.1847 2.69202 15.1072 2.69202ZM15.1459 2.31812V2.24335L15.1847 2.20596C15.2234 2.20596 15.2234 2.20596 15.2234 2.24335C15.2234 2.28074 15.2621 2.28074 15.3396 2.28074L15.3009 2.31812C15.3009 2.35551 15.3009 2.3929 15.3009 2.3929C15.3009 2.3929 15.3396 2.43029 15.3396 2.46768C15.3009 2.46768 15.2621 2.43029 15.1847 2.35551C15.1847 2.3929 15.1459 2.3929 15.1459 2.31812ZM15.4946 2.69202L15.4171 2.65463C15.3784 2.65463 15.3784 2.65463 15.3784 2.61724C15.3784 2.57985 15.3784 2.57985 15.3784 2.57985C15.3784 2.57985 15.3784 2.57985 15.3784 2.54246C15.3784 2.57985 15.3784 2.57985 15.4171 2.57985C15.4946 2.57985 15.4946 2.61724 15.4946 2.69202ZM22.9707 7.36565C23.0869 7.25349 23.2418 7.14132 23.3968 7.02915C23.5517 6.91698 23.7067 6.80482 23.7454 6.69265C23.5905 6.69265 23.513 6.69265 23.4743 6.73004C23.4743 6.76743 23.4743 6.73004 23.513 6.58048C23.513 6.54309 23.4743 6.58048 23.3581 6.69265C23.2806 6.76743 23.2031 6.73004 23.2031 6.54309C23.2031 6.5057 23.2031 6.5057 23.2031 6.5057C23.2031 6.5057 23.2031 6.46831 23.2031 6.43093C23.1256 6.46831 23.0482 6.54309 22.932 6.65526C22.8157 6.76743 22.7383 6.76743 22.6995 6.69265L22.5446 6.76743C22.4671 6.80482 22.4284 6.87959 22.4284 6.95437H22.4671C22.4671 6.99176 22.3896 7.06654 22.2347 7.17871C22.0798 7.29087 21.9635 7.40304 21.9248 7.51521V7.47782C21.5374 7.81432 21.1888 8.2256 20.8402 8.74905C20.4916 9.2725 20.2591 9.75855 20.1429 10.2072C20.2204 10.1698 20.2591 10.1324 20.2979 10.0577C20.3366 10.0203 20.3754 9.98289 20.3754 9.98289C20.4141 9.98289 20.4141 9.98289 20.4141 10.0203C20.4141 10.0577 20.4141 10.0951 20.4528 10.1698C20.4141 10.1698 20.3754 10.2446 20.3366 10.3568C20.2979 10.5063 20.2204 10.5811 20.1042 10.6559C20.1429 10.6933 20.1817 10.7307 20.1817 10.6933C20.1817 10.7307 20.1429 10.8428 20.0267 10.9924C19.9105 11.142 19.7943 11.3289 19.6781 11.5532C19.5619 11.7776 19.4457 12.0393 19.3295 12.301C19.2133 12.5627 19.1358 12.8245 19.1358 13.1236C19.2133 13.0488 19.252 12.974 19.2907 12.9366C19.3295 12.8992 19.3295 12.8992 19.4069 12.8245C19.3682 13.0114 19.2907 13.1984 19.252 13.3479C19.1745 13.5349 19.1745 13.647 19.1745 13.7218C19.4844 12.974 19.7168 12.4506 19.8718 12.1888C20.0267 11.9271 20.0655 11.7776 20.0655 11.7402C20.0655 11.5906 20.1429 11.4411 20.2979 11.2167C20.4528 11.0298 20.5303 10.8428 20.5303 10.6559C20.6852 10.3942 20.8789 10.1324 21.0726 9.79594C21.2663 9.45944 21.46 9.16033 21.6924 8.82383C21.8861 8.52471 22.1185 8.2256 22.3896 7.92649C22.6221 7.66477 22.8932 7.40304 23.1256 7.25349C23.0869 7.25349 23.0482 7.25349 22.9707 7.25349C23.0482 7.36565 23.0094 7.36565 22.9707 7.36565ZM19.9105 12.0393C19.8718 12.0019 19.8718 11.9271 19.9105 11.8523C19.9493 11.7776 19.988 11.7028 20.0655 11.6654C20.0267 11.7402 20.0267 11.815 19.988 11.8523C19.9105 11.9645 19.9105 12.0019 19.9105 12.0393ZM20.6078 8.26299C20.569 8.33777 20.4916 8.41255 20.4528 8.48733C20.3754 8.5621 20.3754 8.63688 20.3754 8.71166C20.4141 8.63688 20.4528 8.5621 20.4916 8.48733C20.5303 8.37516 20.569 8.30038 20.6078 8.26299ZM20.8402 7.92649C20.8402 7.96388 20.8402 7.96388 20.8015 8.00127C20.7627 8.03866 20.7627 8.03866 20.7627 8.07605C20.7627 8.11343 20.7627 8.11343 20.8015 8.11343C20.8015 8.07605 20.8015 8.07605 20.8402 8.03866C20.8789 8.03866 20.8789 8.00127 20.8402 7.92649ZM21.2663 8.97338C21.2663 9.08555 21.2276 9.23511 21.1113 9.38466C21.0339 9.53422 20.9177 9.68378 20.8015 9.72117C20.8402 9.57161 20.8789 9.49683 20.9564 9.42205C20.9951 9.38466 21.1113 9.23511 21.2663 8.97338ZM21.1888 8.89861C21.1501 8.93599 21.1113 9.01077 21.0339 9.12294C20.9564 9.23511 20.9177 9.2725 20.8402 9.30989C20.8789 9.23511 20.9177 9.16033 20.9564 9.08555C21.0726 9.01077 21.1113 8.93599 21.1888 8.89861ZM21.1113 9.75856C21.1501 9.57161 21.2276 9.42205 21.3438 9.30989C21.3438 9.34727 21.305 9.42205 21.2663 9.49683C21.2276 9.609 21.1888 9.68378 21.1113 9.75856ZM21.305 8.26299C21.2663 8.2256 21.2276 8.18821 21.2663 8.18821C21.2663 8.18821 21.2663 8.15082 21.2276 8.15082C21.2276 8.18821 21.2276 8.2256 21.2276 8.26299C21.1888 8.2256 21.2276 8.26299 21.305 8.26299ZM21.6924 8.89861C21.6924 8.93599 21.6924 9.01077 21.6537 9.08555C21.6149 9.16033 21.5762 9.23511 21.4987 9.23511C21.46 9.16033 21.4987 9.12294 21.5374 9.08555C21.5762 9.04816 21.6537 8.97338 21.6924 8.89861ZM21.7311 8.48733C21.7311 8.5621 21.6924 8.63688 21.6537 8.67427C21.6149 8.71166 21.5762 8.74905 21.4987 8.82383C21.5374 8.74905 21.5374 8.71166 21.5762 8.67427C21.6149 8.63688 21.6149 8.5621 21.6149 8.48733H21.7311ZM21.7699 6.09442C21.7311 6.13181 21.6924 6.1692 21.6537 6.1692C21.6149 6.1692 21.5762 6.20659 21.5374 6.24398C21.5762 6.20659 21.6537 6.20659 21.6924 6.1692C21.7699 6.1692 21.7699 6.13181 21.7699 6.09442ZM22.1572 8.15082C22.196 8.18821 22.1572 8.26299 22.1185 8.33777C22.0798 8.41255 22.0023 8.48733 21.9248 8.59949C21.8473 8.67427 21.7699 8.74905 21.7311 8.82383C21.6537 8.89861 21.6149 8.89861 21.5762 8.86122C21.6537 8.71166 21.7699 8.59949 21.8473 8.52471C22.0023 8.41255 22.0798 8.26299 22.1572 8.15082ZM21.7699 7.5526C21.8861 7.40304 22.0023 7.29087 22.1185 7.2161C22.2347 7.14132 22.3122 7.02915 22.4284 6.95437C22.3122 6.99176 22.196 7.06654 22.041 7.2161C21.8473 7.36565 21.7699 7.47782 21.7699 7.5526ZM22.0798 8.07605C22.0798 8.15082 22.041 8.2256 21.9248 8.26299L21.8861 8.2256C21.8861 8.18821 21.9635 8.15082 22.0798 8.07605ZM21.9635 6.91698C22.1185 6.91698 22.3122 6.80482 22.4671 6.61787C22.6608 6.43093 22.8157 6.24398 22.932 6.13181C22.6608 6.28137 22.3896 6.43092 22.1572 6.65526C22.0798 6.69265 22.041 6.73004 22.0023 6.80482L21.9635 6.91698ZM22.1185 6.43093C22.0798 6.39354 22.0798 6.39354 22.041 6.39354C22.0023 6.39354 21.9635 6.43092 21.9635 6.46831C22.0023 6.46831 22.0023 6.46831 22.0023 6.46831C22.041 6.43092 22.041 6.43093 22.1185 6.43093ZM21.9635 8.93599C22.0023 8.89861 22.041 8.86122 22.041 8.86122C22.041 8.86122 22.041 8.82383 22.0798 8.82383C22.0023 8.86122 21.9635 8.89861 21.9635 8.93599ZM22.3509 6.20659C22.2347 6.20659 22.1572 6.24398 22.1572 6.28137C22.1572 6.31876 22.1572 6.31876 22.196 6.31876C22.196 6.28137 22.2347 6.24398 22.2734 6.28137C22.3122 6.24398 22.3509 6.24398 22.3509 6.20659ZM22.1572 8.07605C22.196 8.03866 22.2347 8.00127 22.3509 7.92649C22.3509 7.96388 22.3122 7.96388 22.2734 8.00127C22.2734 8.07605 22.2347 8.07605 22.1572 8.07605ZM22.4671 6.05703C22.4671 6.09442 22.4671 6.13181 22.4284 6.13181C22.3896 6.13181 22.3896 6.13181 22.3896 6.1692V6.20659L22.4284 6.1692C22.4671 6.1692 22.4671 6.13181 22.4671 6.05703ZM22.3896 7.81432C22.4671 7.73954 22.5059 7.66477 22.5833 7.58999C22.6221 7.5526 22.7383 7.47782 22.8545 7.44043C22.777 7.51521 22.6608 7.62738 22.5833 7.70215C22.5059 7.77693 22.4284 7.81432 22.3896 7.81432ZM22.8545 6.87959C22.8545 6.99176 22.777 7.02915 22.6608 7.02915L22.8545 6.87959ZM23.0869 6.39354C23.0869 6.31876 23.0869 6.28137 23.0482 6.28137C23.0094 6.31876 22.932 6.39354 22.8545 6.43093C22.777 6.5057 22.6995 6.54309 22.6995 6.61787C22.777 6.5057 22.932 6.43093 23.0869 6.39354ZM22.8545 6.99176L22.777 7.14132C22.7383 7.14132 22.7383 7.14132 22.6995 7.10393L22.7383 7.06654C22.8157 7.02915 22.8545 6.99176 22.8545 6.99176ZM23.513 5.90748C23.4743 5.90748 23.3968 5.90748 23.3581 5.94487C23.2806 5.98226 23.2418 6.01965 23.1644 6.05703C23.0869 6.09442 23.0869 6.13181 23.0869 6.13181C23.0869 6.1692 23.1256 6.1692 23.2806 6.1692H23.2418C23.2806 6.05703 23.3193 5.98226 23.3968 5.98226C23.4743 5.98226 23.513 5.98226 23.513 5.90748ZM23.1256 21.6483C23.1256 21.6857 23.1256 21.7978 23.1256 21.9474C23.1256 22.097 23.1256 22.2465 23.1256 22.4335C23.1256 22.6204 23.1256 22.77 23.1256 22.9569C23.1256 23.1439 23.1256 23.2934 23.1256 23.4056C23.1256 23.5177 23.1256 23.5177 23.1256 23.443C23.1256 23.3682 23.1644 23.2186 23.1644 23.0691C23.1644 22.9195 23.2031 22.7326 23.2031 22.583C23.2031 22.3961 23.2418 22.2839 23.2418 22.1717C23.2418 22.1343 23.2418 22.0596 23.2418 22.0222C23.2418 21.9848 23.2418 21.91 23.2418 21.8726C23.2418 21.6857 23.2418 21.5361 23.2418 21.3866C23.2418 21.237 23.2418 21.1248 23.2806 21.0501C23.1256 21.1996 23.0869 21.3866 23.1256 21.6483ZM23.1644 20.0032C23.1644 20.0779 23.1644 20.1527 23.1644 20.2275C23.1644 20.3023 23.2031 20.3771 23.2418 20.4144C23.2806 20.4144 23.2806 20.4144 23.2806 20.3771C23.2806 20.3397 23.2806 20.3771 23.2806 20.4144C23.3193 20.4144 23.3193 20.3023 23.3968 20.0779C23.4355 19.8536 23.4743 19.6667 23.5517 19.5919C23.513 19.5919 23.4743 19.6293 23.4743 19.6667L23.4355 19.7041L23.5517 18.9189C23.513 18.9563 23.4743 19.0684 23.3968 19.2554C23.3581 19.4423 23.3193 19.5545 23.3193 19.5919C23.3193 19.5545 23.3193 19.5545 23.3193 19.5171C23.3193 19.4797 23.3193 19.4423 23.3193 19.3676C23.2806 19.4423 23.2806 19.5545 23.3193 19.6667C23.3193 19.7788 23.3193 19.8536 23.3193 19.891C23.3193 19.7414 23.2806 19.6667 23.2418 19.5919C23.1644 19.7041 23.1644 19.8162 23.1644 20.0032ZM23.3193 22.77C23.2418 22.8821 23.2031 22.9943 23.2031 23.0691C23.2031 23.256 23.2031 23.256 23.2418 23.1065C23.3193 22.9943 23.3193 22.8821 23.3193 22.77ZM23.3581 21.4613C23.3193 21.4987 23.3193 21.5735 23.2806 21.6109C23.2806 21.6857 23.2418 21.7231 23.2418 21.7605C23.2418 21.7978 23.2418 21.8352 23.2418 21.91C23.2418 21.9474 23.2418 21.9848 23.2418 22.0596C23.3193 21.8726 23.3581 21.6857 23.3581 21.4613ZM23.6679 21.3866C23.513 21.7978 23.4355 22.1343 23.3968 22.3961C23.3581 22.6578 23.3581 22.8447 23.3581 22.9195C23.3581 23.0317 23.3968 23.0317 23.4355 22.9195C23.4743 22.8447 23.513 22.6204 23.5517 22.3213L23.7067 21.6109C23.7067 21.5735 23.7067 21.5361 23.7067 21.4987C23.6679 21.4613 23.6679 21.424 23.6679 21.3866ZM23.5517 24.1907C23.5517 24.1534 23.5905 24.0786 23.6292 24.0038C23.6292 23.929 23.5905 23.8916 23.5517 23.8916C23.6292 23.4804 23.6292 23.2186 23.5517 23.1439C23.4743 23.0691 23.4743 23.3308 23.4743 23.929C23.513 24.0786 23.513 24.1534 23.5517 24.1907ZM23.5517 16.7503C23.5517 15.8904 23.6679 15.0678 23.9004 14.2079C24.1328 13.3853 24.249 12.5253 24.249 11.7028C24.249 11.628 24.2877 11.5906 24.3265 11.5158C24.3652 11.4785 24.3652 11.4785 24.4427 11.4411C24.4427 11.628 24.4039 11.8897 24.3652 12.1888C24.3265 12.5253 24.2877 12.7871 24.2103 12.974C24.1715 13.1984 24.1328 13.4227 24.094 13.647C24.0553 13.8714 24.0166 14.1331 23.9391 14.3948C23.9778 14.32 24.0166 14.32 24.0166 14.3948C24.0166 14.4696 24.0166 14.4696 24.0166 14.4322C24.0166 14.507 24.0166 14.5817 23.9778 14.6191C23.9391 14.6565 23.9391 14.6939 23.9004 14.8061C23.9004 14.9556 23.9004 15.1052 23.9391 15.18C23.9004 15.2548 23.8616 15.4043 23.8229 15.5913C23.7842 15.7782 23.7842 15.9651 23.7454 16.1147C23.7067 16.3016 23.7067 16.4512 23.6679 16.6008C23.6292 16.7503 23.6292 16.8251 23.5905 16.8251C23.5905 16.7877 23.5905 16.7877 23.5905 16.7503C23.5905 16.7129 23.5905 16.6755 23.5905 16.6381C23.5517 16.6381 23.5517 16.6755 23.5517 16.7129C23.5905 16.7503 23.5905 16.7503 23.5517 16.7503ZM23.7842 19.2554C23.7067 19.4423 23.6679 19.5919 23.6679 19.7788C23.6679 19.9284 23.6292 20.0779 23.5905 20.2649L23.6292 20.3023C23.6679 20.3023 23.6679 20.2649 23.7067 20.1527C23.7454 20.0779 23.7454 19.9658 23.7842 19.8162C23.8229 19.7041 23.8229 19.5545 23.8616 19.4423C23.9004 19.3302 23.9004 19.218 23.9004 19.1806V19.1432C23.9391 19.1058 23.9391 19.1058 23.9391 19.0684C23.9391 19.0311 23.9391 19.0311 23.9004 19.0311C23.9004 19.0684 23.9004 19.1058 23.8616 19.1432C23.7842 19.1806 23.7842 19.218 23.7842 19.2554ZM23.7842 21.0127C23.8616 20.9379 23.9004 20.8631 23.9004 20.8257C23.9391 20.6014 23.9391 20.4518 23.9778 20.4144C24.0166 20.3771 24.0166 20.3023 24.0166 20.3023C24.0166 20.2649 24.0166 20.2649 24.0166 20.1901C24.0166 20.1527 24.0553 20.0406 24.0553 19.8162C24.0553 19.7788 24.0553 19.7788 24.0553 19.7414C24.0553 19.7041 24.0553 19.7041 24.0553 19.6667C24.0553 19.6293 24.0553 19.5545 24.094 19.5171C24.1328 19.4423 24.1328 19.3676 24.1328 19.2554C24.0553 19.4423 24.0166 19.7414 23.9778 20.0779C23.9391 20.4144 23.9004 20.6388 23.8229 20.7136C23.7454 20.7883 23.7067 20.8631 23.7842 20.8631C23.8229 20.7883 23.8229 20.8631 23.7842 21.0127ZM23.8229 22.3213C23.8616 22.2091 23.9004 22.097 23.9004 21.9848C23.9004 21.8726 23.9004 21.7605 23.9004 21.6483C23.9004 21.6109 23.9004 21.6109 23.9004 21.6109C23.9004 21.6109 23.9004 21.6109 23.9004 21.5735L24.0166 21.3118C24.0166 21.237 24.0166 21.237 23.9778 21.3118C23.9391 21.3866 23.9391 21.424 23.9391 21.3866C23.9004 21.3866 23.9004 21.4987 23.8616 21.7231C23.8229 21.9474 23.8229 22.097 23.8229 22.1717C23.7842 22.2091 23.7842 22.2839 23.8229 22.3213ZM24.1715 21.3866C24.1328 21.3866 24.0553 21.5361 24.0166 21.8726C23.9391 22.2091 23.9004 22.4708 23.9004 22.6578C23.9391 22.6204 23.9778 22.5082 24.0553 22.3587C24.1328 22.2091 24.1715 21.91 24.1715 21.424V21.3866ZM24.0553 18.3207C24.0166 18.4328 23.9778 18.545 24.0166 18.6198C24.0166 18.6945 24.0166 18.8067 23.9391 18.9563C24.0166 18.8441 24.094 18.6945 24.1328 18.545C24.1328 18.5076 24.1328 18.4702 24.1328 18.4328C24.0553 18.3954 24.0553 18.358 24.0553 18.3207ZM23.9391 20.9379C24.0553 20.9379 24.094 20.8631 24.094 20.7136C24.0553 20.564 24.0553 20.4892 24.0553 20.4144C24.0553 20.3771 24.0553 20.3771 24.0553 20.3771V20.3397C24.0553 20.3023 24.0553 20.3023 24.0553 20.3023V20.2649C24.0166 20.3771 24.0166 20.5266 23.9778 20.6762C23.9778 20.7883 23.9391 20.9005 23.9391 20.9379ZM24.2103 13.834C24.2103 13.8714 24.2103 13.9461 24.1715 14.1331C24.1328 14.32 24.094 14.3948 24.0553 14.3948V14.2079C24.0553 14.1705 24.0553 14.1331 24.094 14.0957C24.0553 14.0583 24.0553 14.0209 24.094 13.9087C24.094 13.7966 24.1328 13.7966 24.2103 13.834ZM24.249 22.2465C24.249 22.2465 24.2103 22.2465 24.249 22.2465C24.2103 22.2091 24.2103 22.2091 24.1715 22.2091C24.1328 22.2091 24.1328 22.2465 24.1328 22.2839C24.1328 22.3213 24.1328 22.3587 24.094 22.3587C24.1328 22.3961 24.1328 22.4708 24.1328 22.583C24.1328 22.6204 24.1328 22.6952 24.1328 22.7326C24.1328 22.8074 24.1328 22.8447 24.1328 22.8821C24.1328 22.9569 24.1328 22.9943 24.1715 23.0691L24.249 22.2465ZM24.249 11.3289C24.249 11.4411 24.2103 11.5158 24.1328 11.5158V11.4785C24.1715 11.4037 24.2103 11.3289 24.249 11.3289ZM24.5976 13.0488C24.5589 13.0862 24.5201 13.161 24.4814 13.2731C24.4427 13.3853 24.4427 13.4975 24.4427 13.6096C24.5589 13.4227 24.5976 13.2357 24.5976 13.0488ZM24.5589 13.7966C24.5589 13.7592 24.5589 13.7218 24.5976 13.6844C24.6364 13.647 24.6364 13.5722 24.6364 13.5349L24.4814 13.7966H24.5589V13.7966ZM24.5201 22.7326C24.5589 22.6952 24.6364 22.5456 24.7138 22.3213C24.7913 22.097 24.83 21.9474 24.83 21.8726C24.83 21.8352 24.7913 21.7978 24.7526 21.7231C24.7913 21.7978 24.7526 21.8726 24.7138 21.91C24.6751 21.9474 24.6364 22.0222 24.5589 22.1343C24.5589 22.1717 24.5589 22.2091 24.5589 22.3213C24.5589 22.4708 24.5201 22.583 24.5201 22.7326ZM24.7138 11.142L24.5976 11.5158C24.5976 11.628 24.5976 11.7028 24.6364 11.7776C24.6364 11.7028 24.6751 11.5906 24.7526 11.4411C24.83 11.2915 24.8688 11.1793 24.8688 11.142L24.83 11.1046L24.7138 11.142C24.7526 11.142 24.7526 11.142 24.7138 11.142ZM24.7526 22.6952C24.7138 22.6952 24.6751 22.8074 24.6364 22.9943C24.5976 23.1812 24.5976 23.2934 24.5976 23.3308C24.5976 23.2934 24.6364 23.2934 24.6751 23.256C24.7138 23.2186 24.7526 23.0691 24.7526 22.8447C24.7913 22.7326 24.7913 22.6952 24.7526 22.6952ZM24.7526 10.8802C24.7526 10.8428 24.7526 10.8055 24.7913 10.7307C24.83 10.6559 24.83 10.5811 24.83 10.5437C24.7526 10.6559 24.7138 10.7681 24.7526 10.8802C24.7526 10.9176 24.7138 10.8802 24.7526 10.8802ZM26.2245 22.6952C26.2245 22.6204 26.2245 22.5456 26.2245 22.4708C26.2245 22.3961 26.2245 22.3213 26.2245 22.2091C26.2245 22.1717 26.2245 22.097 26.2245 22.0222C26.2245 21.9474 26.302 21.91 26.3795 21.91C26.4182 21.4987 26.457 21.1248 26.5344 20.751C26.6119 20.3771 26.6507 20.0032 26.6507 19.5919C26.6119 19.6667 26.5732 19.7414 26.6119 19.8162C26.6119 19.891 26.6119 19.9284 26.5732 19.9658V19.2554C26.5344 19.5171 26.4957 19.7788 26.4182 19.9658C26.3795 20.1901 26.3408 20.4144 26.2633 20.6388C26.2633 20.4892 26.2633 20.3397 26.2633 20.1527C26.2633 20.0032 26.2633 19.8536 26.2633 19.7041C26.2246 19.7041 26.2246 19.6667 26.2633 19.5545C26.2633 19.4797 26.2633 19.4049 26.2245 19.3676L26.0696 20.6762C26.0696 20.7509 26.0696 20.8257 26.0696 20.9005C26.0696 20.9753 26.0696 21.0127 26.0696 21.0501C26.0309 21.0127 26.0309 20.9753 26.0309 20.9005C26.0309 20.8257 26.0309 20.7509 26.0309 20.6762C26.0309 20.6014 26.0309 20.5266 26.0309 20.4892C26.0309 20.4144 26.0309 20.3397 25.9921 20.3023C25.9534 20.3771 25.9147 20.4518 25.9534 20.5266C25.9534 20.6014 25.9534 20.6762 25.9147 20.7883C25.8759 20.7509 25.8759 20.7136 25.8759 20.6388C25.8759 20.5266 25.8759 20.4144 25.9147 20.3023C25.9534 20.1901 25.9534 20.0406 25.9534 19.891L25.9147 19.8162C25.8372 19.8162 25.7597 19.8536 25.7597 19.9284C25.7597 19.891 25.7597 19.8162 25.7597 19.7414C25.7597 19.6667 25.7985 19.6293 25.8759 19.6293V19.7414C25.9147 19.7414 25.9147 19.7041 25.9147 19.6293C25.9147 19.5545 25.9534 19.4797 25.9534 19.3676C25.9534 19.2554 25.9534 19.1806 25.9534 19.1058C25.9534 19.0311 25.9534 18.9937 25.9534 19.0311C25.9147 19.0684 25.8759 19.1806 25.8759 19.2928C25.8759 19.4423 25.8372 19.4797 25.8372 19.4797L25.7597 19.4049C25.7597 19.3676 25.7597 19.3302 25.7984 19.2928C25.8372 19.2554 25.8372 19.2554 25.8372 19.218V19.1806C25.8372 19.0684 25.8372 18.9563 25.8372 18.8067C25.8372 18.6572 25.8759 18.545 25.8759 18.4328C25.8372 18.4702 25.8372 18.545 25.7984 18.6572C25.7597 18.7693 25.7597 18.8441 25.7597 18.8815C25.7597 18.8441 25.7597 18.8441 25.7597 18.8441C25.7597 18.8441 25.7597 18.8441 25.7597 18.8067C25.7597 18.6945 25.7597 18.5824 25.7984 18.4702C25.8372 18.358 25.8372 18.2459 25.8372 18.1337C25.7597 18.4328 25.721 18.7693 25.6435 19.0311C25.566 19.3302 25.5273 19.5919 25.5273 19.8162V19.8536C25.5273 19.891 25.5273 19.891 25.5273 19.9284C25.5273 19.9658 25.5273 20.0032 25.5273 20.0406C25.5273 20.1527 25.4886 20.2275 25.4498 20.2649L25.4111 20.2275H25.3723V20.1901C25.2949 20.3023 25.2561 20.3771 25.2561 20.4144C25.2561 20.4518 25.2561 20.4892 25.2561 20.5266C25.2561 20.564 25.2561 20.6014 25.2561 20.7136C25.2561 20.8257 25.2561 20.8631 25.2949 20.8631L25.3336 20.8257C25.3336 20.9753 25.3336 21.0127 25.2949 21.0127C25.2949 20.9753 25.2949 20.9753 25.2561 20.9753C25.2174 20.9753 25.2174 20.9379 25.2174 20.9005C25.1787 21.0501 25.1399 21.1622 25.1012 21.1996C25.0625 21.237 25.0237 21.3492 24.985 21.5361L25.0237 21.4987H25.0625C25.1012 21.4987 25.1399 21.5361 25.1399 21.5735C25.1787 21.5735 25.1787 21.5361 25.2561 21.424C25.2174 21.5361 25.1787 21.6483 25.1399 21.7605C25.1012 21.8726 25.0625 21.9848 24.985 22.0222H25.0625C25.0237 22.2091 25.0237 22.2839 25.0625 22.2091C25.1012 22.1343 25.1399 22.0222 25.2174 21.91C25.2561 21.7978 25.2949 21.7231 25.3336 21.7231C25.3336 21.7231 25.2949 21.8726 25.2174 22.1717C25.2949 22.2465 25.3336 22.3213 25.3336 22.4335V23.256C25.3336 23.2934 25.3723 23.3682 25.4111 23.4056C25.4498 23.4804 25.4886 23.5177 25.5273 23.5925C25.566 23.5177 25.6435 23.4804 25.7597 23.443C25.8759 23.4056 25.9534 23.3682 25.9534 23.256C25.9534 23.2186 25.9534 23.1439 25.9921 23.0691C26.0309 22.9943 26.0696 22.9195 26.1858 22.9195C26.1858 22.77 26.1858 22.6952 26.2245 22.6952C26.2633 22.7326 26.2633 22.7326 26.302 22.7326C26.302 22.6578 26.302 22.583 26.302 22.5082C26.302 22.4335 26.302 22.3213 26.302 22.2465C26.302 22.097 26.302 21.9848 26.2633 21.9474C26.2633 22.1343 26.2633 22.2839 26.2633 22.3587C26.2633 22.5456 26.2633 22.6204 26.2245 22.6952ZM25.2561 5.42142C25.2561 5.57098 25.2949 5.60836 25.4498 5.57098C25.5273 5.53359 25.5273 5.4962 25.4498 5.4962C25.3723 5.45881 25.2949 5.45881 25.2561 5.42142ZM25.4498 5.90748C25.4498 5.8327 25.4111 5.79531 25.3723 5.75792C25.2949 5.72053 25.2561 5.72053 25.2561 5.68314C25.2561 5.79531 25.2949 5.87009 25.4498 5.90748ZM25.6048 21.4613C25.6048 21.424 25.6048 21.424 25.6048 21.424V21.3866C25.6435 21.3118 25.6822 21.237 25.6822 21.1996C25.721 21.1996 25.721 21.237 25.721 21.2744C25.721 21.3118 25.721 21.3492 25.6822 21.3866C25.6048 21.3866 25.6048 21.424 25.6048 21.4613ZM25.7597 5.57098C25.7597 5.53359 25.7597 5.4962 25.721 5.4962C25.6822 5.4962 25.6822 5.45881 25.6435 5.45881C25.6435 5.53359 25.6435 5.60836 25.6822 5.60836C25.721 5.57098 25.721 5.57098 25.7597 5.57098ZM25.7984 5.87009C25.7597 5.90748 25.721 5.94487 25.721 6.01965C25.721 6.05703 25.6822 6.09442 25.6822 6.09442L25.8372 6.13181C25.8372 6.09442 25.8372 6.05703 25.8372 6.05703C25.8372 6.05703 25.8372 6.05703 25.8759 6.05703H25.9534C25.9921 6.05703 25.9921 6.05703 25.9921 6.01965C25.8759 5.94487 25.8372 5.90748 25.7984 5.87009ZM25.9534 21.3866C26.0309 21.4613 26.0696 21.4987 26.0696 21.5361C26.0696 21.6109 26.0696 21.7231 26.0696 21.8726C26.0696 22.0222 26.0696 22.1717 26.0309 22.3961C25.9921 22.3961 25.9534 22.2839 25.9534 22.0222V21.3866ZM26.1471 6.65526C26.1471 6.58048 26.1083 6.54309 26.0696 6.46831C26.0309 6.43092 26.0309 6.43093 26.0309 6.39354C25.9921 6.43093 25.9921 6.46831 25.9921 6.5057C25.9921 6.58048 26.0696 6.61787 26.1471 6.65526ZM26.2245 6.24398C26.2245 6.20659 26.1858 6.13181 26.0696 6.05703C26.1083 6.13181 26.1471 6.20659 26.1471 6.24398C26.1471 6.28137 26.1471 6.35615 26.1471 6.43093C26.1858 6.43093 26.2245 6.43093 26.2245 6.39354C26.2633 6.43093 26.2633 6.5057 26.3408 6.54309C26.3795 6.61787 26.457 6.76743 26.5344 6.99176C26.4957 6.87959 26.457 6.76743 26.4182 6.61787C26.4182 6.5057 26.3408 6.35615 26.2245 6.24398ZM26.1858 21.237C26.1471 21.237 26.1083 21.2744 26.1083 21.3118V21.3492H26.0696C26.1083 21.2744 26.1083 21.1996 26.0696 21.1248C26.0696 21.0501 26.0696 20.9379 26.1471 20.8631C26.1471 20.9379 26.1471 21.0127 26.1858 21.1248C26.2246 21.237 26.2246 21.3118 26.1858 21.3492C26.1858 21.3118 26.1858 21.2744 26.1858 21.237ZM26.8831 6.91698C26.8443 6.80482 26.7669 6.58048 26.6119 6.24398C26.4957 5.90748 26.3408 5.68314 26.2245 5.57098C26.2633 5.60836 26.302 5.72053 26.3795 5.8327C26.457 5.98226 26.5344 6.09442 26.5732 6.24398C26.6507 6.39354 26.7281 6.58048 26.8056 6.76743L26.8831 6.91698ZM26.302 6.80482C26.3408 6.84221 26.3408 6.84221 26.3408 6.87959C26.3408 6.91698 26.3795 6.95437 26.4182 6.99176C26.4182 6.84221 26.3795 6.80482 26.302 6.80482ZM26.302 6.95437C26.302 6.99176 26.302 6.99176 26.3408 7.02915C26.3408 7.06654 26.3408 7.06654 26.3795 7.10393V7.02915C26.3795 6.99176 26.3795 6.95437 26.302 6.95437ZM26.3408 23.6299C26.4182 23.6299 26.4957 23.6673 26.4957 23.7047C26.4957 23.7421 26.4957 23.8169 26.457 23.8542C26.4182 23.929 26.4182 23.9664 26.4182 24.0038C26.3408 23.929 26.302 23.8542 26.302 23.8169C26.302 23.7795 26.302 23.7421 26.302 23.7421C26.3408 23.7047 26.3408 23.6673 26.3408 23.6299ZM26.4182 7.2161C26.4182 7.25349 26.4182 7.29087 26.4182 7.29087V7.32826C26.4182 7.36565 26.4182 7.36565 26.457 7.36565H26.5344V7.40304H26.5732C26.5732 7.36565 26.5732 7.32826 26.5344 7.29087C26.457 7.29087 26.457 7.25349 26.4182 7.2161ZM26.9218 7.70215C26.9218 7.62738 26.8831 7.5526 26.7669 7.51521C26.7669 7.62738 26.8056 7.70215 26.9218 7.70215ZM27.2317 7.58999C27.2317 7.5526 27.2317 7.51521 27.2317 7.47782C27.2317 7.44043 27.193 7.40304 27.1542 7.29087C27.1155 7.44043 27.1542 7.5526 27.2317 7.58999Z" fill="black" transform="matrix(1, 0, 0, 1, 215.9444732666016, 133.96865844726562)"></path>
	<path d="M39.9372 14.6565C39.976 14.7687 39.976 14.9182 39.976 15.0678C39.976 15.2174 39.976 15.4043 39.976 15.5912C39.976 16.339 39.8985 17.3485 39.7048 18.5076C39.5111 19.704 39.3174 21.0127 39.0076 22.4335C38.7364 23.8542 38.4265 25.3872 38.1554 26.9575C37.8455 28.5653 37.5743 30.1356 37.3032 31.6686C37.032 33.2389 36.7996 34.7345 36.6059 36.1552C36.4897 37.6134 36.4122 38.8847 36.4122 40.0063C36.4122 40.0437 36.4122 40.0811 36.3735 40.0811C36.3347 40.0811 36.296 40.0811 36.3347 40.0437C36.3735 40.0063 36.3347 40.0063 36.296 40.0063C36.2573 40.0063 36.2185 40.0063 36.2185 40.0437C36.2185 40.0811 36.1798 40.1185 36.1023 40.1185C36.0636 40.0063 36.0249 39.9316 35.9861 39.9316C35.9086 39.9316 35.8312 40.0437 35.7924 40.2307C35.715 40.4176 35.6375 40.5298 35.5988 40.5672C35.3276 40.5672 35.2114 40.6046 35.2114 40.7541C35.2114 40.9037 35.2114 40.9784 35.2501 40.9784H35.1339C35.0952 40.9784 35.0952 40.9784 35.0952 40.9411C35.0564 40.9411 35.0177 40.9784 34.979 41.0158L34.9015 40.9037C34.7853 40.9037 34.7078 40.9411 34.6691 41.0532C34.6303 41.1654 34.5916 41.2028 34.5529 41.2028C34.5141 41.2028 34.5141 41.2028 34.5141 41.2028C34.5141 41.2028 34.4754 41.2028 34.4367 41.2028C34.3979 41.2028 34.3592 41.2402 34.3205 41.3149C34.2817 41.3897 34.243 41.5019 34.2042 41.6141H34.1268C34.088 41.6141 34.0493 41.6514 34.0106 41.6888C33.9718 41.7262 33.9331 41.801 33.8556 41.8384C33.7781 41.8758 33.6619 41.9506 33.507 41.988C33.352 42.0253 33.1584 42.0627 32.8485 42.0627C32.771 42.0627 32.6935 42.0627 32.6161 42.0253C32.5386 41.9879 32.4224 41.9132 32.3449 41.7636C32.2674 41.6141 32.19 41.3897 32.1125 41.0906C32.035 40.7915 32.035 40.3428 32.035 39.782C32.035 39.6698 32.035 39.5577 32.035 39.4455C32.035 39.3333 32.035 39.2585 32.0737 39.2212V39.109C32.0737 38.9594 32.1125 38.7725 32.19 38.5482C32.19 38.4734 32.19 38.3986 32.19 38.3612C32.19 38.2864 32.19 38.2116 32.19 38.1743C32.19 38.0995 32.2287 38.0247 32.3062 37.9873C32.3062 37.9125 32.3062 37.8378 32.3062 37.8004C32.3062 37.7256 32.3062 37.6882 32.3062 37.6508C32.3062 37.2769 32.3449 36.9404 32.4998 36.6413C32.6161 36.3048 32.6548 36.0057 32.6548 35.6692V35.4075C32.6548 35.1457 32.6935 34.9588 32.8097 34.8466C32.8872 34.0988 33.0422 33.3137 33.2358 32.4911C33.4295 31.6686 33.5457 30.9208 33.5457 30.2478H33.4683C33.4295 30.2478 33.4295 30.2478 33.4295 30.2104C33.4683 29.9861 33.5457 29.7991 33.6232 29.6122C33.7007 29.4252 33.7781 29.2757 33.7781 29.0887H33.7394C33.7007 29.0887 33.7007 29.0887 33.7007 29.1261C33.7007 29.1635 33.6619 29.2009 33.5845 29.2009C33.7007 28.6027 33.8556 27.8923 34.0106 27.1071C34.1655 26.3219 34.3205 25.4994 34.4754 24.6394C34.6303 23.8168 34.7853 22.9943 34.9402 22.1717C35.0952 21.3866 35.2114 20.6762 35.3276 20.0779C35.0952 20.3397 34.824 20.6388 34.5529 20.9005C34.2817 21.1996 33.9718 21.4239 33.7007 21.6483C33.3908 21.8726 33.1196 22.0596 32.8097 22.2091C32.4998 22.3587 32.19 22.4335 31.8801 22.4335C30.9891 22.4335 30.3306 22.1717 29.982 21.6109C29.6333 21.0501 29.4397 20.3771 29.4397 19.5919C29.4397 19.0684 29.4784 18.545 29.6333 17.9468C29.7496 17.3859 29.9045 16.8251 30.0982 16.3016C30.2919 15.7782 30.4856 15.2921 30.718 14.8809C30.9504 14.4322 31.1441 14.0957 31.3765 13.834C31.4927 13.6844 31.6864 13.5722 31.9188 13.4975C32.19 13.4227 32.4224 13.3479 32.6935 13.3479C32.8872 13.3479 33.0422 13.4227 33.1584 13.5348C33.2746 13.6844 33.3133 13.834 33.3133 14.0583C33.3133 14.3574 33.2358 14.7313 33.0422 15.1052C32.8485 15.5165 32.6548 15.9277 32.4224 16.4512C32.19 16.9746 31.9963 17.4981 31.8026 18.1337C31.6089 18.7319 31.5314 19.4049 31.5314 20.1527C31.5314 20.4144 31.5702 20.6014 31.6476 20.7883C31.7251 20.9753 31.8801 21.0501 32.035 21.0501C32.3449 21.0501 32.6935 20.7883 33.1584 20.2275C33.5845 19.6667 34.0493 18.9937 34.5141 18.2459C34.979 17.4981 35.4438 16.7129 35.8699 15.9651C36.296 15.2174 36.6834 14.6191 36.9933 14.2452C37.1095 14.0957 37.2644 13.9835 37.4581 13.9087C37.6518 13.7966 37.8455 13.7218 38.0391 13.647C38.2328 13.5722 38.3878 13.4975 38.5427 13.4601C38.6977 13.4227 38.7751 13.3853 38.8139 13.3853C39.085 13.3853 39.3174 13.4975 39.5111 13.7592C39.7048 13.9087 39.8598 14.2452 39.9372 14.6565ZM32.3062 39.2212L32.19 39.2585C32.1512 39.2585 32.1512 39.2585 32.1512 39.2959C32.1512 39.3333 32.1512 39.3333 32.19 39.3707C32.2287 39.4081 32.2287 39.4455 32.2287 39.4455L32.3062 39.2212ZM32.3062 39.1838C32.3449 39.1838 32.3449 39.1464 32.3062 39.1838C32.3062 39.1464 32.3062 39.1464 32.3062 39.109V39.0342C32.3062 38.8847 32.3062 38.6977 32.3449 38.5108C32.3836 38.3238 32.3836 38.1369 32.4611 37.9499L32.3062 37.9873C32.3062 38.0621 32.3062 38.1743 32.3062 38.249C32.3062 38.3238 32.3062 38.436 32.3062 38.5482V38.6977C32.2674 38.7351 32.2674 38.8099 32.2674 38.8847C32.2287 38.8847 32.2674 38.9968 32.3062 39.1838ZM32.4611 37.8752C32.4224 37.8378 32.4224 37.8378 32.4224 37.8004V37.6508C32.3836 37.6882 32.3836 37.6882 32.3449 37.6882C32.3062 37.6882 32.3062 37.7256 32.3062 37.763C32.3062 37.7256 32.3062 37.763 32.3062 37.8004C32.3062 37.8378 32.3449 37.8752 32.3836 37.8752H32.4611V37.8752ZM32.4224 37.6508C32.4611 37.576 32.4998 37.4639 32.4998 37.3517C32.4998 37.2021 32.4998 37.09 32.4998 36.9778V36.903C32.5386 36.7909 32.5773 36.6787 32.6548 36.6039C32.6935 36.5291 32.7323 36.4544 32.7323 36.3422V36.2674C32.6548 36.2674 32.6161 36.3048 32.5386 36.4544C32.4998 36.5665 32.4611 36.6787 32.4224 36.8283C32.3836 36.9778 32.3449 37.1274 32.3449 37.2769C32.3449 37.4265 32.3449 37.5386 32.3449 37.6134C32.3449 37.6508 32.3449 37.6508 32.4224 37.6508ZM32.5773 39.8942C32.6161 39.8568 32.6548 39.8194 32.6548 39.7446V39.5577C32.6548 39.4829 32.6548 39.4455 32.6935 39.4081C32.6161 39.4455 32.5773 39.4455 32.5773 39.4829C32.5773 39.5203 32.5386 39.5203 32.5386 39.5203C32.5386 39.4081 32.5386 39.3333 32.5386 39.2585C32.5386 39.1838 32.4998 39.109 32.4611 39.0342C32.4224 39.109 32.4224 39.2212 32.4224 39.3333V39.8194C32.4611 39.8568 32.4998 39.8942 32.5386 39.8942C32.5773 39.8942 32.5773 39.8568 32.5773 39.8942ZM32.5773 38.3986C32.5773 38.3612 32.5773 38.2864 32.6161 38.1743C32.6548 38.0621 32.6548 37.9873 32.6548 37.9125L32.6161 37.8378C32.6161 37.8004 32.6161 37.763 32.6548 37.763C32.6935 37.763 32.6935 37.7256 32.6935 37.6882C32.6935 37.6508 32.6548 37.6134 32.6161 37.576C32.6161 37.5386 32.6161 37.5013 32.6548 37.4639C32.6935 37.4265 32.6935 37.3891 32.6935 37.3517C32.6935 37.3143 32.6935 37.3143 32.6548 37.2769C32.6161 37.3891 32.6161 37.5013 32.5773 37.6134C32.5386 37.7256 32.5386 37.8751 32.5386 38.0247C32.5773 38.0621 32.5773 38.0621 32.5773 38.1369C32.5773 38.2117 32.5773 38.2864 32.5386 38.3612C32.4998 38.3986 32.4998 38.4734 32.4998 38.5108V38.5482L32.5773 38.5108V38.436C32.5773 38.436 32.5773 38.3986 32.5773 38.3986ZM32.5386 40.0811C32.5386 40.1185 32.5386 40.1559 32.5773 40.1933L32.6548 40.2681C32.6935 40.2681 32.6935 40.268 32.6935 40.2307C32.6935 40.1933 32.6935 40.1559 32.6935 40.1933C32.6935 40.1933 32.6935 40.1933 32.6548 40.1185H32.5386V40.0811ZM32.7323 40.6793C32.7323 40.6419 32.7323 40.6046 32.7323 40.5298C32.7323 40.4924 32.7323 40.455 32.7323 40.3802C32.6935 40.4176 32.6548 40.455 32.6548 40.5298C32.6548 40.5672 32.6161 40.6046 32.5773 40.6419C32.6161 40.6419 32.6548 40.6419 32.6548 40.6793C32.6548 40.7167 32.6935 40.7167 32.7323 40.7167V40.6793ZM32.5773 37.2769C32.6548 37.2769 32.6935 37.2395 32.6935 37.2021V37.1274C32.6161 37.1648 32.5773 37.2021 32.5773 37.2769ZM32.7323 35.4449C32.6548 35.5944 32.6161 35.7814 32.6161 36.0805V36.23C32.6548 36.23 32.6935 36.1553 32.6935 36.0431C32.6935 35.9309 32.7323 35.7814 32.7323 35.6692C32.771 35.5196 32.771 35.4075 32.8097 35.2953C32.8485 35.1831 32.8872 35.1084 32.9647 35.1084C32.9259 34.9588 32.8872 34.884 32.8485 34.884C32.8097 34.884 32.8097 34.884 32.8485 34.884C32.7323 34.884 32.6935 35.0336 32.6935 35.3327V35.4449H32.7323ZM32.6935 36.6039C32.6935 36.7161 32.6935 36.7909 32.7323 36.8656C32.771 36.8656 32.8097 36.8283 32.8097 36.7161V36.5665H32.6935V36.6039ZM32.771 37.9125C32.8097 37.8751 32.8485 37.8004 32.8485 37.7256C32.8485 37.6882 32.8485 37.6508 32.8485 37.6134C32.8485 37.576 32.8485 37.576 32.8485 37.5386V37.576C32.8485 37.6134 32.8485 37.6508 32.8097 37.6882C32.771 37.7256 32.771 37.763 32.771 37.8004C32.7323 37.9125 32.7323 37.9125 32.771 37.9125ZM33.6232 32.4537C33.6619 32.3416 33.6619 32.2294 33.7007 32.1172C33.7394 32.0051 33.7394 31.9303 33.7394 31.8181V31.7059C33.6619 31.7433 33.6232 31.8181 33.5457 31.9677L33.4683 32.2294C33.4683 32.3042 33.4683 32.3416 33.507 32.4163C33.4295 32.6033 33.352 32.7902 33.3133 32.9398C33.352 32.9772 33.352 33.052 33.352 33.1267C33.352 33.2015 33.3133 33.2763 33.2358 33.2763V33.1641C33.2358 33.0146 33.2358 32.9024 33.2746 32.7528C33.3133 32.6033 33.3133 32.4911 33.3133 32.3416V32.192C33.2746 32.2668 33.2358 32.379 33.1971 32.4537C33.1584 32.5285 33.1584 32.6407 33.1584 32.7528V32.8276C33.1196 32.865 33.0809 32.9772 33.0422 33.1267C33.0034 33.2763 32.9647 33.4258 32.9259 33.6128C32.8872 33.7997 32.8485 33.9493 32.8485 34.1362C32.8097 34.2858 32.8097 34.4354 32.8097 34.5101C32.8097 34.5849 32.8097 34.6597 32.8485 34.6971C32.8485 34.6597 32.8485 34.6597 32.8872 34.6597C32.9259 34.6597 32.9259 34.6223 32.9259 34.5849V34.5101C32.9259 34.4727 32.9647 34.4727 33.0034 34.4354V34.5101C33.0034 34.5475 33.0034 34.5849 33.0034 34.6223C33.0034 34.6597 33.0034 34.6597 33.0034 34.6971H33.0809C33.1584 34.6597 33.1971 34.6223 33.2358 34.5101L33.2746 34.6223C33.3133 34.6223 33.3133 34.5849 33.3133 34.5475C33.3133 34.5101 33.3133 34.4354 33.2746 34.398C33.2358 34.3232 33.2358 34.2858 33.2358 34.2484H33.2746C33.2358 34.211 33.2358 34.1736 33.2358 34.1362C33.2358 34.0615 33.2358 33.9867 33.2746 33.9493C33.3133 33.8745 33.3133 33.7997 33.3133 33.7623C33.3133 33.725 33.3133 33.6876 33.3133 33.6876C33.3133 33.6876 33.3133 33.6502 33.3133 33.6128C33.2746 33.725 33.2358 33.8371 33.2358 33.9119C33.2358 33.9867 33.1971 34.0615 33.1584 34.0988C33.1196 34.0988 33.1196 34.0988 33.1196 34.0615V33.9119C33.1584 33.8745 33.1971 33.7623 33.1584 33.6502C33.1584 33.5006 33.1971 33.4258 33.2746 33.3885V33.538C33.352 33.5006 33.3908 33.4258 33.3908 33.3511C33.3908 33.2763 33.3908 33.2015 33.4295 33.1641L33.507 33.1267C33.4683 33.0893 33.4683 33.0893 33.4683 33.052V33.0146C33.507 32.9772 33.5457 32.9024 33.5457 32.8276C33.5457 32.7528 33.5845 32.6781 33.6232 32.6033C33.5845 32.5659 33.5845 32.5659 33.5845 32.5285V32.4537H33.6232ZM33.1584 35.071C33.0809 35.1084 33.0422 35.1457 33.0422 35.1831C33.0422 35.2205 33.0422 35.2205 33.0809 35.2205H33.1196C33.0809 35.2579 33.0809 35.3327 33.0809 35.4075C33.0809 35.4822 33.0422 35.557 32.9647 35.6318V35.5944L32.9259 35.5196C32.8485 35.7066 32.8097 35.9309 32.8097 36.1926V36.3422C32.8485 36.3048 32.8872 36.1926 32.8872 36.0805C32.8872 35.9309 32.9259 35.8561 33.0034 35.8188C32.9647 35.7814 32.9647 35.7814 32.9647 35.744C32.9647 35.7066 32.9647 35.7066 32.9647 35.7066V35.6692C33.0422 35.6318 33.0809 35.557 33.1196 35.4822C33.0809 35.557 33.0809 35.6692 33.0809 35.8188C33.0809 35.8561 33.0809 35.8935 33.1196 35.9309C33.1971 35.8561 33.2746 35.744 33.2746 35.5196V35.3701C33.3133 35.3327 33.352 35.2953 33.352 35.2579V35.1831C33.352 35.1831 33.3133 35.1457 33.3133 35.1084C33.3133 35.071 33.3133 35.0336 33.2746 34.9962L33.1584 35.3327C33.1584 35.2953 33.1196 35.2579 33.0809 35.1831V35.1457C33.0809 35.1084 33.0809 35.1084 33.0809 35.1084C33.1584 35.1457 33.1584 35.1084 33.1584 35.071ZM33.1971 38.0995C33.2358 37.9873 33.2358 37.8752 33.2746 37.763C33.3133 37.6508 33.3133 37.5386 33.3133 37.4265C33.3133 37.2769 33.2358 37.1648 33.1196 37.09L33.0809 37.1274C33.0422 37.1274 33.0422 37.1274 33.0809 37.1274C33.0422 37.1274 33.0034 37.1648 33.0034 37.2395C33.0034 37.3143 33.0034 37.3891 33.0034 37.4639C33.0034 37.5386 33.0422 37.6882 33.0809 37.9125C33.0034 38.1369 32.9259 38.3238 32.9259 38.4734C32.9259 38.5108 32.9259 38.5482 32.9259 38.5855C32.9259 38.6229 32.9259 38.6229 32.9259 38.6977C32.9647 38.5855 33.0034 38.5108 33.0422 38.4734C33.0809 38.436 33.0809 38.3612 33.0809 38.2864C33.0809 38.249 33.0809 38.249 33.0809 38.249C33.0809 38.249 33.0809 38.249 33.0809 38.2117C33.1196 38.2117 33.1196 38.2117 33.1196 38.2117C33.1196 38.2117 33.1196 38.2117 33.1584 38.2117C33.1584 38.1369 33.1584 38.0995 33.1971 38.0995ZM33.2358 37.8378C33.1971 37.8751 33.1584 37.9125 33.1196 37.9125C33.0809 37.9125 33.0422 37.8752 33.0422 37.763C33.0422 37.6134 33.0809 37.5013 33.1584 37.4265C33.1584 37.5013 33.1584 37.5386 33.1584 37.6134C33.1971 37.6508 33.1971 37.7256 33.2358 37.8378ZM33.1971 38.3612C33.2358 38.3612 33.2746 38.3238 33.2746 38.2864C33.2746 38.249 33.2746 38.249 33.2746 38.249C33.2746 38.249 33.2746 38.2116 33.2746 38.1743L33.1584 38.2117L33.1971 38.3612ZM33.1584 40.2307C33.1971 40.1933 33.2358 40.1185 33.2358 40.0811C33.2358 40.0063 33.2358 39.9689 33.2358 39.9316L33.1196 39.9689C33.1196 40.0063 33.1196 40.0063 33.1196 40.0437C33.1196 40.0811 33.1196 40.1185 33.1196 40.1559C33.1196 40.1559 33.1196 40.1933 33.1584 40.2307ZM33.1584 35.5196C33.1584 35.4449 33.1584 35.4075 33.1971 35.3327V35.3701C33.1971 35.4075 33.1971 35.4075 33.1971 35.4075C33.1584 35.4449 33.1584 35.4449 33.1584 35.5196ZM33.3133 34.9214C33.352 34.8466 33.352 34.7719 33.3908 34.7345C33.4295 34.6597 33.4295 34.5849 33.4295 34.5475L33.3133 34.6223C33.3133 34.6971 33.3133 34.7345 33.3133 34.7719C33.3133 34.8092 33.3133 34.8466 33.3133 34.884V34.9214ZM33.352 32.0798C33.4295 31.9677 33.4683 31.8555 33.4683 31.7807C33.4683 31.7059 33.4683 31.6312 33.507 31.519C33.4683 31.5938 33.4295 31.6686 33.3908 31.7059C33.352 31.7807 33.352 31.8555 33.352 31.9677V32.0798ZM33.4295 35.7066C33.4295 35.6692 33.4295 35.6318 33.4683 35.5944C33.507 35.557 33.507 35.5196 33.507 35.4822C33.507 35.4449 33.4683 35.4075 33.4295 35.3327V35.7066V35.7066ZM33.5845 31.2573C33.5845 31.1077 33.5845 30.9956 33.6232 30.846C33.6619 30.6964 33.6619 30.5843 33.6619 30.4347C33.6232 30.4721 33.6232 30.5469 33.5845 30.6217C33.5457 30.6964 33.5457 30.7712 33.5457 30.8086C33.5457 30.8834 33.5457 30.9208 33.5845 30.9582C33.5457 30.9582 33.507 30.9956 33.507 31.1077C33.507 31.1451 33.507 31.2199 33.5845 31.2573ZM33.8169 31.3694C33.8556 30.9956 33.9331 30.6591 34.0493 30.2852C33.8944 30.3599 33.8169 30.4721 33.7781 30.6591C33.7394 30.846 33.7007 31.0329 33.7007 31.1825V31.2573L33.6232 31.2947C33.6619 31.3321 33.6619 31.3694 33.6619 31.4068C33.6232 31.4442 33.6619 31.4442 33.7007 31.4442C33.7394 31.4442 33.7781 31.4442 33.7394 31.4068C33.7394 31.3694 33.7781 31.3694 33.8169 31.3694ZM33.9331 29.4626C33.9331 29.4252 33.9331 29.3878 33.9331 29.3878C33.9331 29.3878 33.9331 29.3504 33.9331 29.313C33.8944 29.313 33.8556 29.3504 33.8169 29.3878C33.7781 29.4252 33.7394 29.4626 33.7394 29.5374L33.9331 29.4626ZM34.1268 28.5653C34.1655 28.4905 34.243 28.4157 34.2817 28.3035C34.3205 28.1914 34.3592 28.0792 34.3592 27.967V27.8923C34.2817 27.8549 34.2042 27.9296 34.1655 28.1166C34.1655 28.3409 34.1268 28.4905 34.1268 28.5653Z" fill="black" transform="matrix(1, 0, 0, 1, 215.9444732666016, 133.96865844726562)"></path>
	<path d="M 287.391 151.272 C 286.89 151.219 286.528 151.03 286.026 151.168 C 285.553 151.309 284.418 151.117 284.442 151.396 C 284.468 151.8 284.579 153.578 284.853 154.049 C 285.129 154.521 284.991 156.393 285.19 156.865 C 285.391 157.336 285.471 158.243 285.245 158.54 C 285.021 158.854 285.037 158.414 284.688 158.66 C 284.337 158.905 284.066 158.556 283.641 158.696 C 283.217 158.835 282.925 159.349 282.976 156.396 C 282.979 156.201 282.772 154.835 282.644 153.687 C 282.516 152.539 282.267 151.896 282.216 151.511 C 282.128 150.848 278.983 152.092 279.333 151.533 C 279.682 150.972 278.027 149.753 278.676 149.333 C 279.301 148.914 282.986 149.202 283.811 148.957 C 284.66 148.712 286.658 148.877 287.56 148.877 C 288.332 148.877 287.542 151.359 287.391 151.272 Z" fill="black" style="transform-origin: 283.208px 153.821px;" transform="matrix(0.996497929096, 0.083617016673, -0.083617016673, 0.996497929096, -0.000017591555, -0.000006312922)"></path>
	<path d="M 289.801 158.751 C 289.785 158.767 289.785 158.767 289.768 158.782 C 289.751 158.798 289.751 158.814 289.751 158.845 C 289.751 158.892 289.751 158.924 289.751 158.956 C 289.751 158.987 289.768 159.019 289.768 159.066 C 289.719 159.034 289.686 159.003 289.686 158.972 C 289.686 158.94 289.654 159.019 289.654 159.019 C 289.654 159.034 289.654 159.034 289.637 159.019 C 289.621 159.003 289.474 158.861 289.457 158.83 C 289.441 158.798 289.425 158.782 289.425 158.767 C 289.425 158.83 289.36 158.798 289.36 158.751 C 289.36 158.703 289.343 158.671 289.343 158.671 C 289.326 158.656 289.326 158.671 289.326 158.703 C 289.326 158.735 289.31 158.767 289.31 158.814 C 289.31 158.845 289.245 158.814 289.229 158.767 C 289.212 158.703 289.147 158.656 289.147 158.767 C 289.098 158.751 288.983 158.561 288.983 158.64 C 288.983 158.719 288.983 158.767 288.967 158.767 C 288.95 158.767 288.869 158.34 288.853 158.166 C 288.836 158.009 288.819 157.851 288.819 157.693 C 288.819 157.535 288.819 157.409 288.819 157.33 C 288.819 157.283 288.819 157.236 288.819 157.172 C 288.819 157.109 288.819 157.062 288.819 157.014 C 288.853 156.525 288.901 156.068 288.918 155.641 C 288.95 155.199 288.983 154.773 289.016 154.347 C 289.048 153.921 289.098 153.495 289.13 153.068 C 289.163 152.642 289.212 152.184 289.278 151.726 C 289.278 151.726 289.425 150.953 289.457 150.779 C 289.474 150.606 289.506 150.432 289.539 150.243 C 289.572 150.053 289.604 149.864 289.637 149.675 C 289.67 149.485 289.703 149.327 289.751 149.201 C 289.801 149.044 289.882 148.949 290.013 148.901 C 290.144 148.854 290.275 148.822 290.406 148.822 C 290.472 148.822 290.553 148.822 290.651 148.838 C 290.749 148.854 290.847 148.87 290.945 148.885 C 291.044 148.917 291.125 148.949 291.207 148.996 C 291.289 149.044 291.322 149.106 291.322 149.169 C 291.322 149.217 291.305 149.264 291.289 149.296 C 291.305 149.359 295.004 149.438 295.004 149.501 C 295.004 149.58 295.004 150.599 295.004 150.678 C 295.004 150.993 294.934 151.016 294.902 151.237 C 294.869 151.458 291.158 151.711 291.125 151.711 C 290.156 154.531 294.023 152.808 294.657 154.43 C 295.291 156.052 290.749 154.805 290.667 155.373 C 290.585 155.941 290.504 156.509 290.422 157.093 C 290.341 157.677 294.929 156.821 294.881 157.734 C 294.394 157.811 295.561 159.211 290.128 158.987 C 290.092 158.986 290.112 159.034 290.112 159.051 C 290.095 159.066 290.095 159.034 290.079 158.987 C 290.062 158.94 290.046 158.877 290.013 158.814 C 294.582 159.148 290.013 158.909 290.013 158.956 C 290.013 159.003 290.013 159.051 290.013 159.082 C 289.981 159.066 289.801 158.83 289.801 158.751 Z" fill="black" style="transform-origin: 291.911px 153.952px;"></path>
	<path d="M 270.095 143.59 C 269.401 149.417 269.649 150.457 269.637 150.896 C 269.585 152.796 269.687 155.352 269.541 155.989 C 269.394 156.625 270.234 157.295 270.198 157.578 L 270.198 157.649 L 270.234 157.649 C 270.198 157.684 270.161 157.72 270.124 157.755 C 270.051 157.79 270.014 157.86 269.978 157.966 C 269.904 157.896 269.904 157.86 269.904 157.86 C 269.904 157.931 269.904 158.002 269.941 158.002 C 269.868 158.037 269.795 158.073 269.795 158.108 C 269.758 158.108 269.758 158.073 269.721 158.002 C 269.648 158.037 269.611 158.073 269.574 158.143 C 269.538 158.179 269.502 158.214 269.465 158.214 C 269.428 158.037 269.368 158.172 269.295 158.172 C 269.258 158.243 269.221 158.201 269.184 158.236 C 269.149 158.271 269.099 158.214 269.099 158.285 C 269.099 158.249 269.099 158.249 269.062 158.249 C 269.025 158.249 269.025 158.249 269.025 158.214 C 268.952 158.285 268.915 158.32 268.915 158.356 C 268.915 158.426 268.915 158.462 268.952 158.497 C 268.842 158.533 268.769 158.568 268.732 158.674 C 268.622 158.674 268.586 158.639 268.586 158.603 C 268.586 158.568 268.586 158.497 268.549 158.391 C 268.403 158.533 268.329 158.603 268.329 158.639 C 268.329 158.674 268.219 158.674 268.036 158.674 C 267.926 158.674 267.853 158.639 267.816 158.533 C 267.743 158.533 267.633 158.533 267.45 158.568 C 267.267 158.603 267.047 158.603 266.827 158.639 C 266.608 158.674 266.387 158.71 266.168 158.71 C 265.948 158.745 265.802 158.745 265.728 158.745 C 265.618 158.745 265.545 158.71 265.509 158.674 C 265.472 158.674 265.472 158.674 265.472 158.71 C 265.472 158.745 265.435 158.745 265.398 158.745 C 265.362 158.745 265.288 158.745 265.215 158.745 C 265.142 158.745 265.069 158.71 265.032 158.674 C 265.032 158.639 265.032 158.603 265.069 158.568 C 265.106 158.533 265.106 158.533 265.106 158.497 C 265.106 158.426 265.069 158.391 265.032 158.356 C 264.959 158.32 265.075 158.324 265.075 158.324 C 265.148 158.359 265.069 158.285 265.032 158.214 C 265.032 158.143 265.032 158.073 265.069 158.037 C 265.106 158.037 265.106 158.037 265.106 158.073 C 265.069 158.108 265.106 158.108 265.142 158.108 C 265.142 158.037 265.142 157.966 265.142 157.896 C 265.142 157.826 265.142 157.79 265.142 157.755 C 265.142 157.543 265.129 155.488 265.165 154.852 C 265.202 154.215 265.181 154.166 265.291 153.282 C 265.365 152.397 265.229 153.546 265.302 152.521 C 265.376 151.531 264.111 149.544 262.705 151.131 C 261.299 152.718 262.207 154.588 261.914 157.346 C 261.914 157.558 261.914 157.735 261.951 157.841 C 261.988 157.983 261.988 158.124 261.988 158.335 C 261.988 158.583 261.951 158.76 261.841 158.866 C 261.731 158.972 261.621 159.043 261.511 159.043 C 261.402 159.079 261.292 159.114 261.181 159.114 C 261.072 159.149 261.035 159.185 260.999 159.291 C 260.999 159.326 260.999 159.326 260.999 159.362 C 260.999 159.397 260.999 159.397 260.999 159.432 C 260.925 159.397 260.889 159.362 260.852 159.326 C 260.815 159.291 260.778 159.291 260.706 159.291 C 260.632 159.326 260.522 159.362 260.412 159.397 C 260.303 159.432 260.266 159.432 260.229 159.467 C 260.193 159.467 260.046 159.467 259.789 159.432 C 259.533 159.397 259.386 159.397 259.313 159.397 C 259.204 159.397 259.13 159.432 259.13 159.538 C 259.13 159.644 259.057 159.679 258.946 159.679 C 258.911 159.679 258.801 159.644 258.69 159.608 C 258.654 159.644 258.617 159.644 258.617 159.679 C 258.617 159.715 258.58 159.715 258.544 159.715 C 258.508 159.715 258.471 159.715 258.434 159.679 C 258.397 159.715 258.287 159.785 258.141 159.856 C 257.994 159.927 257.812 159.998 257.628 159.998 C 257.554 159.998 257.518 159.927 257.482 159.75 C 257.445 159.573 257.409 159.397 257.372 159.149 C 257.335 158.902 257.335 158.654 257.335 158.371 C 257.335 158.089 257.335 157.841 257.335 157.593 C 257.335 153.987 257.262 150.38 257.079 146.809 C 257.079 143.379 257.005 139.701 257.005 135.918 C 257.005 135.882 257.005 135.812 257.042 135.741 C 257.042 135.705 257.116 135.635 257.188 135.564 C 257.188 135.528 257.298 135.493 257.482 135.387 C 257.665 135.282 257.884 135.14 258.141 135.034 C 258.434 134.928 258.69 134.822 258.983 134.715 C 259.24 134.609 259.497 134.574 259.679 134.574 C 260.046 134.574 260.339 134.68 260.559 134.857 C 260.778 135.034 260.962 135.317 261.072 135.635 C 261.181 135.953 261.255 136.307 261.292 136.731 C 261.328 137.12 261.365 137.545 261.365 137.933 C 261.365 138.428 261.328 139.1 261.292 139.949 C 261.218 140.762 261.181 141.61 261.108 142.46 C 261.035 143.308 260.962 144.086 260.852 144.829 C 260.778 145.536 261.021 147.321 260.984 147.639 C 261.46 146.437 263.016 145.769 263.783 145.842 C 263.783 145.842 265.638 145.98 265.942 147.616 C 266.246 149.252 266.169 134.567 267.218 134.684 C 267.316 134.139 269.038 134.536 269.112 134.642 C 269.44 134.603 271.228 134.01 270.714 135.31 C 270.714 135.274 270.095 143.625 270.095 143.59 Z M 257.994 147.763 L 257.994 147.692 C 257.994 147.657 257.994 147.657 258.031 147.622 C 257.958 147.622 257.921 147.657 257.921 147.692 C 257.921 147.728 257.958 147.763 257.994 147.763 Z M 258.471 153.351 C 258.508 153.421 258.508 153.456 258.508 153.527 C 258.508 153.562 258.471 153.668 258.471 153.774 C 258.471 153.916 258.471 153.987 258.508 153.987 L 258.617 152.997 C 258.654 152.961 258.69 152.961 258.727 152.891 C 258.764 152.82 258.764 152.749 258.727 152.749 C 258.801 152.572 258.874 152.501 258.874 152.501 C 258.874 152.501 258.874 152.466 258.874 152.43 C 258.874 152.36 258.946 151.193 258.946 151.016 C 258.946 150.84 258.946 150.769 258.946 150.698 C 258.946 150.663 258.946 150.663 258.946 150.734 C 258.946 150.805 258.911 150.84 258.911 150.84 C 258.874 150.84 258.874 150.84 258.874 150.805 L 258.874 150.698 C 258.874 150.663 258.874 150.663 258.911 150.663 C 258.911 150.592 258.946 150.521 258.983 150.486 C 258.946 150.451 258.911 150.415 258.911 150.344 C 258.911 150.309 258.911 150.309 258.946 150.238 C 258.983 150.203 258.983 150.168 258.946 150.132 L 258.874 150.203 L 258.874 150.344 C 258.874 150.451 258.874 150.486 258.874 150.451 C 258.874 150.415 258.837 150.38 258.837 150.309 C 258.837 150.344 258.837 150.38 258.837 150.415 C 258.837 150.451 258.837 150.451 258.837 150.486 C 258.837 150.628 258.837 150.769 258.837 150.946 C 258.837 151.122 258.764 151.122 258.764 151.122 C 258.764 151.087 258.764 151.051 258.764 151.016 C 258.764 150.981 258.764 150.981 258.764 150.946 C 258.764 151.087 258.654 151.582 258.654 151.582 C 258.69 151.441 258.69 151.264 258.69 151.087 C 258.69 150.911 258.69 150.734 258.69 150.557 C 258.69 150.451 258.69 150.309 258.69 150.061 C 258.69 149.849 258.654 149.638 258.654 149.425 C 258.654 149.213 258.617 149.036 258.617 148.895 C 258.58 148.753 258.58 148.647 258.544 148.647 C 258.544 148.682 258.508 148.753 258.471 148.859 C 258.471 148.895 258.471 148.93 258.471 149.001 C 258.471 149.036 258.471 149.071 258.508 149.142 C 258.508 149.036 258.508 148.965 258.544 148.965 C 258.58 149.001 258.58 149.036 258.58 149.071 C 258.58 149.248 258.58 149.39 258.544 149.532 C 258.508 149.673 258.508 149.814 258.508 150.026 C 258.544 150.274 258.544 150.38 258.508 150.344 C 258.508 150.309 258.508 150.344 258.508 150.38 C 258.508 150.415 258.508 150.451 258.471 150.486 C 258.434 150.521 258.434 150.451 258.434 150.344 C 258.434 150.274 258.434 150.168 258.434 150.061 C 258.434 149.955 258.434 149.708 258.434 149.284 L 258.324 149.955 C 258.287 149.92 258.287 149.849 258.287 149.744 C 258.287 149.638 258.287 149.532 258.287 149.425 C 258.287 149.319 258.287 149.213 258.287 149.107 C 258.25 149.107 258.214 149.071 258.178 148.965 C 258.141 148.859 258.141 148.824 258.141 148.895 C 258.141 148.93 258.141 149.001 258.105 149.107 C 258.068 149.213 258.068 149.284 258.105 149.319 C 258.141 149.355 258.141 149.319 258.141 149.319 C 258.141 149.284 258.178 149.284 258.178 149.284 L 258.105 149.425 L 258.105 149.461 C 258.141 149.461 258.141 149.496 258.105 149.532 C 258.068 149.567 258.068 149.602 258.068 149.673 C 258.068 149.779 258.068 149.814 258.068 149.779 C 258.068 149.744 258.068 149.814 258.068 149.955 C 258.068 149.991 258.068 150.026 258.105 150.061 C 258.105 150.097 258.141 150.132 258.141 150.132 C 258.105 150.132 258.105 150.132 258.068 150.097 C 258.068 150.061 258.031 150.061 258.031 150.061 L 258.031 150.203 C 258.068 150.203 258.068 150.203 258.105 150.168 L 258.105 150.203 C 258.068 150.238 258.031 150.309 258.031 150.415 C 258.031 150.521 258.031 150.628 258.031 150.663 C 258.031 150.84 258.031 151.016 258.031 151.122 C 258.031 151.228 258.031 151.334 258.031 151.405 C 258.031 151.476 258.031 151.582 258.031 151.724 C 258.031 151.83 258.031 152.007 258.068 152.219 C 258.031 152.395 258.031 152.537 258.068 152.572 C 258.068 152.607 258.105 152.714 258.105 152.855 C 258.105 152.961 258.178 153.032 258.361 153.067 C 258.361 153.174 258.361 153.244 258.324 153.244 C 258.287 153.244 258.324 153.315 258.397 153.386 C 258.397 153.351 258.434 153.351 258.471 153.351 Z M 258.105 147.94 C 258.105 148.011 258.105 148.046 258.068 148.082 C 258.105 148.117 258.141 148.152 258.141 148.259 L 258.141 148.329 C 258.141 148.294 258.141 148.294 258.178 148.294 C 258.214 148.294 258.214 148.259 258.214 148.223 C 258.214 148.046 258.178 147.905 258.105 147.834 L 258.105 147.94 Z M 258.141 148.788 C 258.141 148.718 258.141 148.647 258.141 148.577 C 258.141 148.506 258.141 148.435 258.105 148.4 C 258.105 148.435 258.105 148.506 258.068 148.612 C 258.068 148.718 258.105 148.788 258.141 148.788 Z M 258.141 151.441 C 258.141 151.582 258.141 151.688 258.141 151.794 C 258.141 151.901 258.141 152.007 258.141 152.148 C 258.141 152.113 258.141 152.078 258.141 152.042 C 258.141 152.007 258.141 151.971 258.141 151.936 C 258.141 151.865 258.141 151.759 258.141 151.653 C 258.105 151.547 258.105 151.476 258.141 151.441 Z M 258.141 150.309 C 258.178 150.344 258.178 150.415 258.178 150.486 C 258.178 150.557 258.178 150.663 258.178 150.698 C 258.178 150.769 258.178 150.84 258.178 150.911 C 258.178 150.981 258.178 151.016 258.141 151.122 C 258.105 151.157 258.105 151.122 258.105 150.981 C 258.105 150.84 258.105 150.734 258.105 150.557 C 258.105 150.521 258.105 150.451 258.105 150.344 C 258.105 150.238 258.141 150.238 258.141 150.309 Z M 258.178 152.891 C 258.141 152.891 258.105 152.855 258.105 152.749 C 258.105 152.714 258.105 152.678 258.105 152.643 C 258.105 152.607 258.105 152.607 258.105 152.572 C 258.178 152.572 258.178 152.607 258.178 152.607 L 258.178 152.891 Z M 258.214 147.339 C 258.178 147.339 258.141 147.375 258.141 147.41 C 258.141 147.445 258.178 147.48 258.214 147.48 L 258.214 147.339 Z M 258.25 147.763 C 258.25 147.763 258.214 147.728 258.25 147.763 L 258.214 147.622 C 258.178 147.657 258.178 147.692 258.178 147.728 C 258.178 147.763 258.214 147.798 258.25 147.763 Z M 258.25 148.259 C 258.214 148.365 258.178 148.506 258.178 148.682 C 258.178 148.859 258.178 148.965 258.214 149.071 C 258.25 148.93 258.25 148.788 258.214 148.682 C 258.214 148.577 258.25 148.435 258.25 148.259 Z M 258.287 151.37 C 258.287 151.441 258.287 151.511 258.287 151.582 C 258.287 151.653 258.287 151.759 258.287 151.865 C 258.25 151.794 258.214 151.688 258.214 151.653 C 258.25 151.547 258.25 151.441 258.287 151.37 Z M 258.287 152.254 C 258.324 152.289 258.324 152.289 258.324 152.324 C 258.324 152.36 258.324 152.395 258.361 152.466 C 258.397 152.501 258.397 152.537 258.361 152.572 L 258.324 152.714 C 258.287 152.678 258.287 152.537 258.287 152.254 Z M 258.434 150.946 C 258.397 150.946 258.361 150.946 258.361 150.911 C 258.361 150.875 258.361 150.875 258.361 150.84 C 258.361 150.805 258.361 150.769 258.361 150.769 C 258.361 150.805 258.361 150.805 258.397 150.805 C 258.397 150.84 258.397 150.84 258.397 150.84 C 258.397 150.84 258.397 150.875 258.397 150.911 L 258.434 150.946 Z M 258.911 150.238 C 258.946 150.203 258.946 150.168 258.946 150.061 C 258.911 150.097 258.874 150.132 258.874 150.203 L 258.911 150.238 Z M 259.057 150.769 C 259.093 151.087 259.24 151.122 259.277 150.946 C 259.313 150.769 259.313 150.592 259.313 150.415 C 259.277 150.415 259.24 150.274 259.24 149.991 L 259.24 148.753 C 259.24 148.788 259.24 148.753 259.24 148.753 C 259.24 148.753 259.204 148.718 259.167 148.718 C 259.13 149.142 259.13 149.532 259.093 149.884 C 259.057 150.168 259.057 150.486 259.057 150.769 Z M 259.167 150.734 C 259.204 150.734 259.204 150.734 259.204 150.769 C 259.167 150.805 259.167 150.84 259.204 150.84 C 259.167 150.875 259.167 150.875 259.13 150.875 C 259.093 150.875 259.093 150.875 259.093 150.84 C 259.13 150.805 259.13 150.769 259.167 150.734 Z M 259.24 150.663 C 259.204 150.663 259.167 150.628 259.167 150.592 C 259.167 150.557 259.167 150.521 259.167 150.486 C 259.204 150.521 259.24 150.557 259.24 150.663 Z M 259.277 150.274 C 259.35 150.132 259.386 149.955 259.35 149.708 C 259.35 149.496 259.35 149.39 259.35 149.461 C 259.35 149.602 259.35 149.708 259.313 149.849 C 259.277 149.991 259.277 150.132 259.277 150.274 Z" fill="black" style="transform-origin: 263.906px 147.201px;"></path>
	<g transform="matrix(1, 0, 0, 1, -0.7751769423484802, -12.956537246704102)">
		<g>
			<g>
				<g>
					<g>
						<path d="M 279.598 163.53 C 279.997 164.395 279.552 168.905 278.339 169.506 C 278.082 170.402 276.569 171.073 276.089 171.174 C 275.609 171.275 275.128 171.35 274.818 171.35 C 273.927 171.35 273.269 171.088 272.92 170.527 C 272.571 169.966 272.378 169.293 272.378 168.508 C 272.378 167.985 272.416 167.461 272.571 166.863 C 272.688 166.302 272.842 165.741 273.036 165.218 C 273.23 164.694 273.424 164.208 273.656 163.797 C 273.888 163.348 274.082 163.012 274.314 162.75 C 274.431 162.601 274.624 162.488 274.857 162.414 C 276.982 160.981 278.32 162.366 278.591 162.366 C 278.785 162.366 275.98 162.339 276.096 162.451 C 276.213 162.601 279.917 163.949 277.48 164.32 C 277.184 164.365 277.1 163.722 276.419 164.387 C 276.114 164.487 275.922 164.251 275.384 165.221 C 274.846 166.191 274.926 166.419 274.741 167.05 C 274.565 167.653 274.469 168.321 274.469 169.069 C 274.469 169.331 274.508 169.518 274.586 169.705 C 274.663 169.892 274.818 169.966 274.973 169.966 C 275.283 169.966 276.044 169.999 276.583 169.145 C 276.96 168.146 276.444 169.19 277.258 167.711 C 278.072 166.232 277.348 167.778 278.009 166.021 C 278.67 164.264 275.157 163.618 275.467 163.244 C 275.583 163.095 275.576 162.19 275.77 162.115 C 275.964 162.003 278.11 162.395 278.304 162.32 C 278.498 162.245 279.199 162.665 279.598 163.53 Z" fill="black" style="transform-box: fill-box; transform-origin: 50% 50%;"></path>
					</g>
				</g>
			</g>
		</g>
	</g>
	<path d="M 300.285 143.573 C 300.276 153.57 300.528 155.374 300.606 154.595 C 300.646 153.817 300.883 156.955 300.522 158.804 C 300.406 158.837 300.369 158.871 300.329 158.973 C 300.329 159.006 300.329 159.006 300.329 159.041 C 300.329 159.074 300.329 159.074 300.329 159.107 C 300.251 159.074 300.213 159.041 300.174 159.006 C 300.134 158.973 300.095 158.973 300.019 158.973 C 299.942 159.006 300.884 159.041 300.767 159.074 C 300.653 159.107 300.612 159.107 300.573 159.141 C 300.535 159.141 300.379 159.141 300.107 159.107 C 299.836 159.074 299.68 159.074 299.602 159.074 C 299.487 159.074 299.409 159.107 299.409 159.21 C 299.409 159.311 299.331 159.344 299.214 159.344 C 299.176 159.344 299.059 159.311 298.943 159.277 C 298.904 159.311 298.865 159.311 298.865 159.344 C 298.865 159.379 298.826 159.379 298.788 159.379 C 298.749 159.379 298.71 159.379 298.671 159.344 C 298.632 159.379 298.515 159.446 298.36 159.514 C 298.205 159.581 298.012 159.65 297.817 159.65 C 297.739 159.65 297.7 159.581 297.662 159.412 C 297.623 159.243 297.585 159.074 297.545 158.837 C 297.506 158.6 297.506 158.363 297.506 158.092 C 297.506 157.822 297.506 157.584 297.506 157.347 C 297.506 153.893 297.429 150.439 297.235 147.02 C 297.235 143.734 297.157 143.213 297.157 139.59 C 297.157 139.555 297.157 139.489 297.196 139.421 C 297.196 139.386 297.274 139.318 297.35 139.251 C 297.35 139.216 297.467 139.183 297.662 139.081 C 297.857 138.981 298.088 138.844 298.36 138.743 C 298.671 138.642 298.943 138.541 299.253 138.438 C 299.525 138.336 299.798 138.831 299.99 138.831 C 300.379 138.831 300.728 139.97 300.64 140.369 C 300.211 142.324 300.285 143.353 300.285 143.573 Z M 298.205 147.934 L 298.205 147.866 C 298.205 147.832 298.205 147.832 298.244 147.799 C 298.168 147.799 298.127 147.832 298.127 147.866 C 298.127 147.901 298.168 147.934 298.205 147.934 Z M 298.71 153.284 C 298.749 153.352 298.749 153.385 298.749 153.453 C 298.749 153.487 298.71 153.589 298.71 153.69 C 298.71 153.826 298.71 153.893 298.749 153.893 L 298.865 152.945 C 298.904 152.911 298.943 152.911 298.981 152.844 C 299.022 152.776 299.022 152.708 298.981 152.708 C 299.059 152.539 299.137 152.47 299.137 152.47 C 299.137 152.47 299.137 152.437 299.137 152.403 C 299.137 152.335 299.137 152.234 299.137 152.066 C 299.137 151.896 299.176 151.727 299.176 151.557 C 299.214 151.387 299.214 151.219 299.214 151.048 C 299.214 150.88 299.214 150.812 299.214 150.745 C 299.214 150.711 299.214 150.711 299.214 150.779 C 299.214 150.847 299.176 150.88 299.176 150.88 C 299.137 150.88 299.137 150.88 299.137 150.847 L 299.137 150.745 C 299.137 150.711 299.137 150.711 299.176 150.711 C 299.176 150.643 299.214 150.574 299.253 150.541 C 299.214 150.508 299.176 150.473 299.176 150.405 C 299.176 150.372 299.176 150.372 299.214 150.304 C 299.253 150.271 299.253 150.237 299.214 150.202 L 299.137 150.271 L 299.137 150.405 C 299.137 150.508 299.137 150.541 299.137 150.508 C 299.137 150.473 299.099 150.439 299.099 150.372 C 299.099 150.405 299.099 150.439 299.099 150.473 C 299.099 150.508 299.099 150.508 299.099 150.541 C 299.099 150.677 299.099 150.812 299.099 150.982 C 299.099 151.15 299.059 151.286 299.059 151.456 C 299.059 151.591 299.022 151.727 299.022 151.828 C 299.022 151.93 299.022 151.963 299.022 151.963 L 299.022 151.15 C 299.022 151.117 299.022 151.082 299.022 151.048 C 299.022 151.015 299.022 151.015 299.022 150.982 C 299.022 151.117 299.022 151.32 299.022 151.557 C 299.022 151.794 299.022 151.963 299.022 152.066 C 298.981 152.066 298.981 152.066 298.981 152.031 C 298.981 151.93 298.981 151.828 298.981 151.76 C 298.981 151.693 298.981 151.591 298.981 151.489 L 298.904 151.591 C 298.943 151.456 298.943 151.286 298.943 151.117 C 298.943 150.948 298.943 150.779 298.943 150.609 C 298.943 150.508 298.943 150.372 298.943 150.134 C 298.943 149.931 298.904 149.729 298.904 149.525 C 298.904 149.323 298.865 149.152 298.865 149.017 C 298.826 148.882 298.826 148.78 298.788 148.78 C 298.788 148.814 298.749 148.882 298.71 148.983 C 298.71 149.017 298.71 149.051 298.71 149.119 C 298.71 149.152 298.71 149.186 298.749 149.254 C 298.749 149.152 298.749 149.085 298.788 149.085 C 298.826 149.119 298.826 149.152 298.826 149.186 C 298.826 149.356 298.826 149.491 298.788 149.627 C 298.749 149.763 298.749 149.898 298.749 150.1 C 298.788 150.338 298.788 150.439 298.749 150.405 C 298.749 150.372 298.749 150.405 298.749 150.439 C 298.749 150.473 298.749 150.508 298.71 150.541 C 298.671 150.574 298.671 150.508 298.671 150.405 C 298.671 150.338 298.671 150.237 298.671 150.134 C 298.671 150.033 298.671 149.797 298.671 149.39 L 298.554 150.033 C 298.515 149.999 298.515 149.931 298.515 149.831 C 298.515 149.729 298.515 149.627 298.515 149.525 C 298.515 149.424 298.515 149.323 298.515 149.221 C 298.476 149.221 298.438 149.186 298.4 149.085 C 298.36 148.983 298.36 148.95 298.36 149.017 C 298.36 149.051 298.36 149.119 298.322 149.221 C 298.283 149.323 298.283 149.39 298.322 149.424 C 298.36 149.458 298.36 149.424 298.36 149.424 C 298.36 149.39 298.4 149.39 298.4 149.39 L 298.322 149.525 L 298.322 149.56 C 298.36 149.56 298.36 149.593 298.322 149.627 C 298.283 149.661 298.283 149.695 298.283 149.763 C 298.283 149.864 298.283 149.898 298.283 149.864 C 298.283 149.831 298.283 149.898 298.283 150.033 C 298.283 150.067 298.244 152.505 298.283 152.539 C 298.283 152.572 298.322 152.675 298.322 152.809 C 298.322 152.911 298.4 152.979 298.595 153.013 C 298.595 153.116 298.595 153.182 298.554 153.182 C 298.515 153.182 298.554 153.25 298.632 153.318 C 298.632 153.284 298.671 153.284 298.71 153.284 Z M 298.322 148.103 C 298.322 148.171 298.322 148.204 298.283 148.239 C 298.322 148.273 298.36 148.306 298.36 148.409 L 298.36 148.476 C 298.36 148.442 298.36 148.442 298.4 148.442 C 298.438 148.442 298.438 148.409 298.438 148.375 C 298.438 148.204 298.4 148.069 298.322 148.001 L 298.322 148.103 Z M 298.36 148.915 C 298.36 148.849 298.36 148.78 298.36 148.713 C 298.36 148.645 298.36 148.577 298.322 148.543 C 298.322 148.577 298.322 148.645 298.283 148.747 C 298.283 148.849 298.322 148.915 298.36 148.915 Z M 298.4 152.844 C 298.36 152.844 298.322 152.809 298.322 152.708 C 298.322 152.675 298.322 152.641 298.322 152.607 C 298.322 152.572 298.322 152.572 298.322 152.539 C 298.4 152.539 298.4 152.572 298.4 152.572 L 298.4 152.844 Z M 298.438 147.527 C 298.4 147.527 298.36 147.562 298.36 147.595 C 298.36 147.629 298.4 147.663 298.438 147.663 L 298.438 147.527 Z M 298.476 147.934 C 298.476 147.934 298.438 147.901 298.476 147.934 L 298.438 147.799 C 298.4 147.832 298.4 147.866 298.4 147.901 C 298.4 147.934 298.438 147.967 298.476 147.934 Z M 298.476 148.409 C 298.438 148.51 298.4 148.645 298.4 148.814 C 298.4 148.983 298.4 149.085 298.438 149.186 C 298.476 149.051 298.476 148.915 298.438 148.814 C 298.438 148.713 298.476 148.577 298.476 148.409 Z M 298.554 152.675 C 298.515 152.641 298.554 152.369 298.595 152.437 C 298.632 152.47 298.632 152.505 298.595 152.539 L 298.554 152.675 Z M 298.671 150.982 C 298.632 150.982 298.595 150.982 298.595 150.948 C 298.595 150.913 298.595 150.913 298.595 150.88 C 298.595 150.847 298.595 150.812 298.595 150.812 C 298.595 150.847 298.595 150.847 298.632 150.847 C 298.632 150.88 298.632 150.88 298.632 150.88 C 298.632 150.88 298.632 150.913 298.632 150.948 L 298.671 150.982 Z M 299.137 151.387 C 299.137 151.522 299.137 151.693 299.099 151.861 C 299.059 152.031 299.059 152.201 299.022 152.369 C 299.022 152.234 299.022 152.066 299.022 151.861 C 299.059 151.659 299.059 151.522 299.137 151.387 Z M 299.176 150.304 C 299.214 150.271 299.214 150.237 299.214 150.134 C 299.176 150.169 299.137 150.202 299.137 150.271 L 299.176 150.304 Z" fill="black" style="transform-origin: 304.166px 147.476px;" transform="matrix(0.998118102551, 0.06132600829, -0.06132600829, 0.99811810255, 0.000017445889, 0.000009061277)"></path>
</svg>